<svg xmlns="http://www.w3.org/2000/svg" xmlns:xlink="http://www.w3.org/1999/xlink" viewBox="0 0 595.5 360.58"><defs><style>.cls-1{isolation:isolate;}.cls-2{fill:#c4c3fc;}.cls-3{fill:#4a41a3;}.cls-4{fill:#ffadb7;}.cls-5{fill:#fca70c;}.cls-14,.cls-15,.cls-20,.cls-21,.cls-27,.cls-28,.cls-29,.cls-6{opacity:0.5;}.cls-10,.cls-12,.cls-14,.cls-15,.cls-17,.cls-18,.cls-20,.cls-21,.cls-27,.cls-28,.cls-29,.cls-32,.cls-33,.cls-6{mix-blend-mode:overlay;}.cls-6{fill:url(#linear-gradient);}.cls-7{fill:#f98091;}.cls-8{fill:#ed6279;}.cls-9{fill:#01004c;}.cls-10,.cls-17,.cls-32{opacity:0.51;}.cls-10{fill:url(#radial-gradient);}.cls-11,.cls-22,.cls-23,.cls-26,.cls-34{fill:none;}.cls-11,.cls-23{stroke:#ef8998;stroke-width:0.5px;}.cls-11,.cls-22,.cls-23,.cls-26,.cls-34,.cls-38,.cls-40{stroke-linecap:round;}.cls-11,.cls-22,.cls-26{stroke-miterlimit:10;}.cls-12,.cls-18,.cls-33{opacity:0.75;}.cls-12{fill:url(#linear-gradient-2);}.cls-13{fill:#282766;}.cls-14{fill:url(#linear-gradient-3);}.cls-15{fill:url(#linear-gradient-4);}.cls-16{fill:#5851bc;}.cls-17{fill:url(#radial-gradient-2);}.cls-18{fill:url(#linear-gradient-5);}.cls-19{fill:#5146af;}.cls-20{fill:url(#linear-gradient-6);}.cls-21{fill:url(#linear-gradient-7);}.cls-22,.cls-26{stroke:#fff;}.cls-22{stroke-width:1.5px;}.cls-23,.cls-34,.cls-38,.cls-40{stroke-linejoin:round;}.cls-24{fill:#7762ef;}.cls-25{font-size:30px;font-family:Quicksand-Bold, Quicksand;font-weight:700;}.cls-25,.cls-30,.cls-38,.cls-40{fill:#fff;}.cls-26{stroke-width:1.2px;}.cls-27{fill:url(#linear-gradient-8);}.cls-28{fill:url(#linear-gradient-9);}.cls-29{fill:url(#linear-gradient-10);}.cls-31{fill:#5045af;}.cls-32{fill:url(#radial-gradient-3);}.cls-33{fill:url(#linear-gradient-11);}.cls-34{stroke:#91b6e0;stroke-width:2px;}.cls-35{fill:#c1ccd6;}.cls-36{fill:#ffe430;}.cls-37{fill:#a9b8c9;}.cls-38{stroke:#4a41a3;}.cls-39{fill:#91b6e0;}.cls-40{stroke:#01004c;}.cls-41{fill:#fcd98e;}</style><linearGradient id="linear-gradient" x1="193.12" y1="47.71" x2="219.39" y2="62.87" gradientUnits="userSpaceOnUse"><stop offset="0"/><stop offset="0.9" stop-opacity="0"/></linearGradient><radialGradient id="radial-gradient" cx="219.6" cy="38.7" r="3.48" gradientTransform="matrix(1, -0.05, 0.05, 1, -2.7, 8.89)" gradientUnits="userSpaceOnUse"><stop offset="0"/><stop offset="1" stop-opacity="0"/></radialGradient><linearGradient id="linear-gradient-2" x1="209.39" y1="36.68" x2="211.86" y2="36.42" gradientUnits="userSpaceOnUse"><stop offset="0.21" stop-opacity="0"/><stop offset="1"/></linearGradient><linearGradient id="linear-gradient-3" x1="174.5" y1="145.3" x2="182.24" y2="101.4" gradientUnits="userSpaceOnUse"><stop offset="0.09" stop-opacity="0"/><stop offset="1"/></linearGradient><linearGradient id="linear-gradient-4" x1="186.86" y1="92.7" x2="198.88" y2="71.87" gradientUnits="userSpaceOnUse"><stop offset="0.1" stop-opacity="0"/><stop offset="1"/></linearGradient><radialGradient id="radial-gradient-2" cx="174.48" cy="230.3" r="3.48" xlink:href="#radial-gradient"/><linearGradient id="linear-gradient-5" x1="175.07" y1="234.9" x2="177.26" y2="233.37" xlink:href="#linear-gradient-2"/><linearGradient id="linear-gradient-6" x1="181.78" y1="284.44" x2="161.76" y2="260.58" gradientUnits="userSpaceOnUse"><stop offset="0.1" stop-opacity="0"/><stop offset="0.7"/></linearGradient><linearGradient id="linear-gradient-7" x1="153.36" y1="326.19" x2="153.36" y2="302.08" xlink:href="#linear-gradient-3"/><linearGradient id="linear-gradient-8" x1="485.12" y1="316.88" x2="485.12" y2="292.52" xlink:href="#linear-gradient-4"/><linearGradient id="linear-gradient-9" x1="460.2" y1="316.72" x2="460.2" y2="292.52" xlink:href="#linear-gradient-4"/><linearGradient id="linear-gradient-10" x1="488.29" y1="218.32" x2="476.18" y2="197.35" xlink:href="#linear-gradient-4"/><radialGradient id="radial-gradient-3" cx="462.9" cy="182.49" r="2.78" xlink:href="#radial-gradient"/><linearGradient id="linear-gradient-11" x1="469.02" y1="170.25" x2="471" y2="171.91" gradientUnits="userSpaceOnUse"><stop offset="0"/><stop offset="0.79" stop-opacity="0"/></linearGradient></defs><title>Asset 2</title><g class="cls-1"><g id="Layer_2" data-name="Layer 2"><g id="OBJECTS"><path class="cls-2" d="M49.1,359.25C24,322.45,8.48,262.86,40.92,236.35s70.42,5.93,70.42,5.93S47.51,95.11,116.09,58.72s106.78,61.94,106.78,61.94-3.66-106,57.26-119.44,86.64,88.44,86.64,88.44S370.11,19.42,445,28.92,483.51,165.4,483.51,165.4s36-33.23,77.5-8.31-25.32,112.52-25.32,112.52,38.37-10.45,49.45,19.22S563,359.19,563,359.19Z"/><polygon class="cls-3" points="283.47 58.72 417.31 58.72 395.25 140.48 261.4 140.48 283.47 58.72"/><polygon class="cls-3" points="179.23 98.43 231.05 98.43 256.39 140.48 204.57 140.48 179.23 98.43"/><path class="cls-4" d="M233.18,81.71l-11-1.1,4.66,9h0a87.28,87.28,0,0,0,15.23,8.08l2.19-5.17A48.08,48.08,0,0,1,233.18,81.71Z"/><path class="cls-5" d="M233.18,81.71c-11.57-14.89-20.8-37.11-25.87-44-4.07-5.56-19.26,2-5.86,25.91,6.71,12,16.89,20.53,25.37,26.08Z"/><path class="cls-6" d="M217.49,56.11c-4.24-8-7.71-15.06-10.18-18.44-4.07-5.56-19.26,2-5.86,25.91a66.69,66.69,0,0,0,9.87,13.26C213.44,71.78,216,62,217.49,56.11Z"/><rect class="cls-7" x="230.8" y="86" width="44.34" height="53.27" transform="translate(36.97 -60.64) rotate(14.74)"/><rect class="cls-8" x="274.1" y="94.02" width="18.74" height="53.27" transform="translate(40.02 -68.14) rotate(14.74)"/><path class="cls-9" d="M206.92,32.85c-1-3-2.23-11.31,2.8-13.94,0,0,2.87-8.14,9.25-6.86s18.67,2.31,17.39,14.36-12.6,6.89-12.6,6.89Z"/><path class="cls-4" d="M203.82,35.66s.39,2.24,4.21,5.11L212,37.34s6.94,8.13,13.08.34a4.56,4.56,0,0,0,1.66,1.12s.66-5.69,3.45-8.72c0,0-5.27-5.59-8.54-4s-4.14,2.15-4.38.72,2.07-3.83-.95-5.11-5.43,3.27-4.16,6.46Z"/><path class="cls-10" d="M222.16,35.4a3.49,3.49,0,1,0-3.29,3.66A3.49,3.49,0,0,0,222.16,35.4Z"/><path class="cls-11" d="M224,31.27a2.2,2.2,0,0,1,2,2.2"/><path class="cls-11" d="M213,25.68a4.59,4.59,0,0,1,.72-2,2,2,0,0,1,1.5-1,1.39,1.39,0,0,1,.58.13"/><path class="cls-11" d="M213.86,23.49a3.07,3.07,0,0,0,.93,1"/><path class="cls-12" d="M210,39h0L212,37.34a11,11,0,0,1-1.86-3.13A4.77,4.77,0,0,0,210,39Z"/><path class="cls-13" d="M171.11,99.44s-14.55,67.05-28.78,94.84l7.13,3.68s36.84-50.07,44-80.65Z"/><polygon class="cls-7" points="142.33 194.28 149.46 197.96 157.62 209.7 138.66 200.75 142.33 194.28"/><path class="cls-14" d="M171.11,99.44s-3.65,16.79-9.07,37.05c2.36,3,7.8,7.81,19.62,10.07,5.31-10.26,9.75-20.54,11.79-29.25Z"/><path class="cls-13" d="M193.61,151.35c6.7,15.34,7,53,7,53l7.9,0c11.52-48.4-8.17-106-8.17-106L167,98.68C169.71,124,188.14,138.83,193.61,151.35Z"/><polygon class="cls-7" points="200.63 204.35 208.53 204.33 220.92 211.46 199.95 211.46 200.63 204.35"/><path class="cls-5" d="M167,98.68a77,77,0,0,0,33.36-.33S197.84,71.74,206,59c7.46-11.61,5.4-31.32-12.58-21.78C162.63,53.55,167,98.68,167,98.68Z"/><path class="cls-15" d="M201.18,73.2l-13.87-7.37c-3.31,12.4-9.45,31.52,12.86,29.89A109.29,109.29,0,0,1,201.18,73.2Z"/><path class="cls-5" d="M205.92,83.74c-3.18-12.11,10.19-44.9-.85-47.62-17.72-4.37-24.55,42-9.5,59A38.6,38.6,0,0,0,208,104.42h0l5.41-9.75h0A21.63,21.63,0,0,1,205.92,83.74Z"/><path class="cls-4" d="M213.41,94.66h0c6.31,5.23,14.79,8,19.51,7.44,0,0,6-3.82,6.68-2.95.39.5-1.56,3-1.56,3s7.69-.87,7.84,0-4.42,1.58-5.76,1.88c0,0,6.87-.53,7.06.32s-5.18,1.54-6.65,1.6c1.13,0,6,0,6.07,1s-5.58.9-6.14.82c0,0,4.06,1.14,4,2.09s-6.73-.1-10.12-1.1a51.09,51.09,0,0,1-26.3-4.3Z"/><rect class="cls-3" x="122.37" y="211.46" width="139.03" height="147.73"/><rect class="cls-16" x="204.57" y="140.48" width="138.86" height="218.71"/><rect class="cls-3" x="343.43" y="140.48" width="51.82" height="218.77"/><polygon class="cls-16" points="420.59 98.43 368.77 98.43 343.43 140.48 395.25 140.48 420.59 98.43"/><path class="cls-9" d="M171.34,233.75c-3-1.94-6.12-2.05-6.06-5.67s-4.11-5.4.86-9.23c0,0-1.78-5.84,2.54-8.48s3.49-3,9.27-5.27,17.16.11,18.89,5.24-.94,6.8,1.11,9.49-.87,8-7.13,7-16.25,6.91-16.25,6.91Z"/><path class="cls-4" d="M169.87,237.35l1.47-3.6a5.83,5.83,0,0,0,2.31-3.71c.14-2.16,2-5.2,2-5.2s-3.88-5,.11-7,2,4.48,4.39,4.77,3.74-5.72,12.53-2.81a43,43,0,0,0-1.24,9.57,10.31,10.31,0,0,1-2.4,0s-.47,6.42-5.9,6.34a10.34,10.34,0,0,1-5.24-1.37l-2,5.08Z"/><path class="cls-17" d="M187.53,229.16a3.49,3.49,0,1,0-3.29,3.67A3.49,3.49,0,0,0,187.53,229.16Z"/><path class="cls-11" d="M187.09,223.48a2.39,2.39,0,0,1,2.52,1"/><path class="cls-11" d="M175.49,222a3.42,3.42,0,0,1-.23-1.86,1.81,1.81,0,0,1,1.1-1.26,1.78,1.78,0,0,1,.72-.25"/><line class="cls-11" x1="175.48" y1="219.61" x2="176.53" y2="220.33"/><path class="cls-18" d="M177,237h0l1-2.6a8.46,8.46,0,0,1-3.31-2.52S174.26,235.23,177,237Z"/><path class="cls-4" d="M169.18,254.34s7.48,32,35.66,42.62l-3.26,6.56s-27.07-8.07-42.62-32Z"/><path class="cls-19" d="M179.92,277.08a72.67,72.67,0,0,1-10.74-22.74L159,271.55a72,72,0,0,0,11.73,13.74A49.84,49.84,0,0,0,179.92,277.08Z"/><path class="cls-20" d="M182,279.86a72.74,72.74,0,0,1-12.83-25.52L159,271.55a74.24,74.24,0,0,0,16.75,18A35.7,35.7,0,0,0,182,279.86Z"/><path class="cls-19" d="M164.72,313.31s4.79,45.14-35.38,45.14c-14.82,0-26.42-9.07-35.59-16.34l5.23-5.9s22.68,20.44,37.52,6.48,5.32-40.61,5.32-40.61Z"/><polygon class="cls-7" points="98.98 336.21 93.75 342.11 80.69 348.89 92.58 330.66 98.98 336.21"/><path class="cls-21" d="M141.82,302.08a59.17,59.17,0,0,1,2.82,22.3,79.36,79.36,0,0,0,19.7,1.71,59.34,59.34,0,0,0,.38-12.78Z"/><path class="cls-19" d="M139.52,299.63s16.42-5.62,32.62-6.7,36.28-.86,40,12.75-11.45,46.44-11.45,46.44l-7.78-1.3s7.78-22,4.11-30.89-10.37-10.15-21.82-5.83S143,323.39,139.52,299.63Z"/><polygon class="cls-7" points="192.87 350.82 200.65 352.12 213.32 359.58 191.57 359.19 192.87 350.82"/><line class="cls-22" x1="226.38" y1="266.13" x2="225.55" y2="272.39"/><path class="cls-4" d="M219.87,278.17c1.74.46,4.93.89,7.31,0,1.31-.5,1.42-1.39,1.42-1.39.41,0,2.55-.36,2.62-1.27s-1.24-.93-1.24-.93c.92-.22,2-.79,1.84-1.64s-2.55-.36-2.55-.36a4.67,4.67,0,0,0-1-2c-.77-.92-1.83-1.79-2.12-1s.77,2.52.77,2.52a8.43,8.43,0,0,1-3.13-.94s1.82-.79,1.47-1.9-2.81-.17-4,.73a11.09,11.09,0,0,0-2.44,2.14Z"/><path class="cls-23" d="M229.19,273.15a1.9,1.9,0,0,1-1.47,1,10.55,10.55,0,0,1-2.43-.09"/><path class="cls-23" d="M229.53,274.85a8.38,8.38,0,0,1-4.28.63"/><path class="cls-23" d="M228.09,276.85a26.25,26.25,0,0,1-3,.25"/><path class="cls-4" d="M188.15,259.31h0l-8.15,4.5-.28,8.19h0c16.88,9.74,40.15,6.17,40.15,6.17l-1-6C201.15,270.33,192.79,265.17,188.15,259.31Z"/><path class="cls-24" d="M172.35,236.91c-15.84-3.66-27.79,11.17-32.83,26s-2,39.17-2,39.17c9.3,2.44,23.76-.87,34.64-9.15C168.54,282,172,266,172,266a34.52,34.52,0,0,0,7.69,6l8.43-12.69C180.91,250.17,182.77,239.33,172.35,236.91Z"/><text class="cls-25" transform="translate(243.85 262.89)">BRA</text><line class="cls-26" x1="228.37" y1="265.61" x2="303.5" y2="265.61"/><path class="cls-4" d="M478.2,292.52S476,299.84,484.46,350l7.65-.63s-4.16-38.73.19-56.8Z"/><polygon class="cls-9" points="484.46 349.95 492.11 349.32 493.49 358.49 475.78 358.49 484.94 353.11 484.46 349.95"/><path class="cls-27" d="M479.55,316.88a86.21,86.21,0,0,0,10.77-1.1c0-8.58.51-17.12,2-23.26H478.2S477.08,296.28,479.55,316.88Z"/><path class="cls-4" d="M454.2,292.52c-2.55,21.49,2.1,57,2.1,57H464s-1.84-37.19,3-56Z"/><polygon class="cls-9" points="456.31 349.49 463.95 349.49 464.92 358.49 447.21 358.49 456.37 353.11 456.31 349.49"/><path class="cls-28" d="M453.58,315.9c3,.3,6.55.61,10.43.82.44-8.41,1.31-16.88,3-23.24l-12.77-1A160.93,160.93,0,0,0,453.58,315.9Z"/><path class="cls-3" d="M458.68,229.75S445.8,276.83,445,305.58c0,0,30.3,1.43,55.89-2.72,0,0-6.46-62-5.94-76.41Z"/><path class="cls-4" d="M457.14,210.75,448,205.91l-15.42,43.64s-6.38,4.32-5.49,5.62,3.28-.46,3.28-.46-3.94,8.48-2.09,8.89c1,.22,3.11-6.55,3.11-6.55s-1.93,8-.55,8.23,2.57-7.84,2.57-7.84-.24,7.57.82,7.56,1.79-7.42,1.79-7.42-.36,5.64.82,5.55S438.74,252,438.74,252C445.35,238.82,457.14,210.75,457.14,210.75Z"/><path class="cls-24" d="M448,205.91c3.34-11.87,7.67-26.29,20.79-29.2s27.67-.19,27.74,21.47-1.58,28.27-1.58,28.27l-36.26,3.3-1.54-19Z"/><path class="cls-4" d="M466.58,177.34l5.51,10.41,6.49-12a36.48,36.48,0,0,0-9.8.93A19.27,19.27,0,0,0,466.58,177.34Z"/><path class="cls-29" d="M468.64,224.8c8.12.13,26.85-.72,25.09-37.57l-12,10.17Z"/><rect class="cls-30" x="407.03" y="178.3" width="26.21" height="37.68" transform="translate(34.82 -61.53) rotate(8.74)"/><path class="cls-4" d="M433.69,195.19s3.21,2.52,3.39,4.41l-3.89-1.22Z"/><path class="cls-4" d="M485.89,210.38l-3-10.29-9,2.69h0c-1.23,2.26-2.39,4.34-3.37,5.95-1.21,2-3.45,3.56-5.59,2.66L437.08,199.6,434,197.52s-8-3.2-8.18-1.55c-.08.78,1.56,1.64,3.33,2.33-1.71-.44-3.31-.65-3.34.12s2,1.8,3.88,2.5c-1.93-.53-3.95-.93-4-.31-.14,1.12,6.37,3.44,7.22,3.74-.72-.25-5.68-1.93-5.87-.87s7.08,3.38,7.08,3.38,26.88,18.19,34,18,12.43-5.81,17.33-13.66c.16-.25.32-.52.47-.79Z"/><path class="cls-31" d="M485.89,210.38c4.76-8.11,9.61-23.66,7.24-26.81-4-5.38-7.92-1.41-9.83,1.59-1.11,1.73-5.54,10.55-9.38,17.62A97.42,97.42,0,0,0,485.89,210.38Z"/><path class="cls-4" d="M468.84,180.08l.05-9.67s-9.35.66-6.63-14.8S481,158.43,481,158.43l-5.35,11.73-.3,9.88Z"/><path class="cls-9" d="M472.85,160.36c1.25.33,2.07-2.32,3.72-2s2.08,3-.74,4.44c0,0-5.51,8.06-.41,15.63s17.89,4.16,19.69-2.39-.76-14.11-6.29-17.07-8.07-4-9.56-8.66c-1.25-3.94-10.06-8-15.65-4.13-4.85,3.33-4.88,9-1.65,11.23,2.14,1.51,6.72-2.77,8.87-1.51S471.6,160,472.85,160.36Z"/><path class="cls-11" d="M467.22,160.9a1.79,1.79,0,0,1,2.77-.24"/><path class="cls-23" d="M462.4,160.94a1.38,1.38,0,0,1,2.14-.19"/><path class="cls-32" d="M472.21,165.77a2.78,2.78,0,1,0-2.62,2.93A2.77,2.77,0,0,0,472.21,165.77Z"/><path class="cls-23" d="M465.74,161.85a3.8,3.8,0,0,1-.86,2.37,2.55,2.55,0,0,0,1.6.17"/><path class="cls-11" d="M476.92,160.81a1.5,1.5,0,0,0,.19-1,.83.83,0,0,0-.67-.76h-.13a1.31,1.31,0,0,0-.78.4"/><path class="cls-11" d="M476.14,160.1a1.45,1.45,0,0,0,.65-.87"/><path class="cls-33" d="M468.88,173v0c2.3-.33,3.33-3,3.33-3a21,21,0,0,1-3.33.4Z"/><line class="cls-34" x1="19.43" y1="359.58" x2="594.5" y2="359.58"/><rect class="cls-30" x="488.23" y="83.35" width="91.57" height="41.73"/><path class="cls-3" d="M579.3,83.85v40.72H488.73V83.85H579.3m1-1H487.73v42.72H580.3V82.85Z"/><polygon class="cls-35" points="583.66 128.74 448.36 128.74 445 125.57 580.3 125.57 583.66 128.74"/><polygon class="cls-5" points="491.09 128.74 448.36 128.74 445 125.57 487.73 125.57 491.09 128.74"/><rect class="cls-36" x="445" y="82.85" width="42.73" height="42.73"/><polygon class="cls-37" points="583.66 128.74 580.3 125.57 580.3 82.85 583.66 86.01 583.66 128.74"/><rect class="cls-2" x="498.41" y="91.35" width="28.88" height="3.76"/><line class="cls-38" x1="498.41" y1="101.86" x2="570.6" y2="101.86"/><line class="cls-38" x1="498.41" y1="108.58" x2="570.6" y2="108.58"/><line class="cls-38" x1="498.41" y1="115.31" x2="536.12" y2="115.31"/><circle class="cls-30" cx="466.36" cy="104.21" r="10.29" transform="translate(192.63 495.9) rotate(-67.65)"/><path class="cls-16" d="M469.56,100.65a3.2,3.2,0,1,0-3.2,3.2A3.2,3.2,0,0,0,469.56,100.65Z"/><path class="cls-16" d="M466.36,105a6.67,6.67,0,0,0-6.67,6.67c0,.13,0,.27,0,.4a10.25,10.25,0,0,0,13.3,0c0-.13,0-.27,0-.4A6.67,6.67,0,0,0,466.36,105Z"/><rect class="cls-30" x="273.36" y="175.57" width="91.57" height="41.73"/><path class="cls-9" d="M364.44,176.07V216.8H273.86V176.07h90.58m1-1H272.86V217.8h92.58V175.07Z"/><polygon class="cls-35" points="368.8 220.96 233.5 220.96 230.14 217.8 365.44 217.8 368.8 220.96"/><polygon class="cls-8" points="276.23 220.96 233.5 220.96 230.14 217.8 272.87 217.8 276.23 220.96"/><rect class="cls-7" x="230.14" y="175.07" width="42.73" height="42.73"/><polygon class="cls-37" points="368.8 220.96 365.44 217.8 365.44 175.07 368.8 178.24 368.8 220.96"/><rect class="cls-39" x="283.55" y="183.58" width="28.88" height="3.76"/><line class="cls-40" x1="283.55" y1="194.08" x2="355.74" y2="194.08"/><line class="cls-40" x1="283.55" y1="200.81" x2="355.74" y2="200.81"/><line class="cls-40" x1="283.55" y1="207.53" x2="340.65" y2="207.53"/><path class="cls-30" d="M242.79,199.55l-.47-2.1-.62-2.65h0l-1.09,4.75h-1.76l-1.71-6h1.63l.69,2.66c.11.47.23,1.13.34,2h0a12.59,12.59,0,0,1,.19-1.3l.09-.45.74-2.88h1.8l.71,2.88c0,.07,0,.19.06.34s.06.32.09.5.06.34.08.51a3.82,3.82,0,0,1,0,.4h0c0-.26.09-.61.18-1.06s.14-.76.17-.91l.72-2.66h1.61l-1.73,6Z"/><path class="cls-30" d="M253.3,199.55l-.46-2.1-.62-2.65h0l-1.1,4.75h-1.76l-1.71-6h1.64l.69,2.66c.11.47.22,1.13.34,2h0a10.29,10.29,0,0,1,.19-1.3l.08-.45.74-2.88h1.81l.7,2.88c0,.07,0,.19.07.34s.06.32.09.5,0,.34.08.51,0,.3,0,.4h0c0-.26.09-.61.17-1.06s.14-.76.18-.91l.72-2.66h1.6l-1.73,6Z"/><path class="cls-30" d="M263.82,199.55l-.47-2.1-.62-2.65h0l-1.09,4.75h-1.76l-1.71-6h1.63l.69,2.66a18,18,0,0,1,.34,2h0a12.59,12.59,0,0,1,.19-1.3l.09-.45.74-2.88h1.8l.71,2.88c0,.07,0,.19.07.34s.06.32.08.5.06.34.08.51a2.23,2.23,0,0,1,0,.4h0c0-.26.09-.61.18-1.06s.14-.76.17-.91l.72-2.66h1.61l-1.73,6Z"/><rect class="cls-30" x="43.23" y="51" width="91.57" height="41.73"/><path class="cls-3" d="M134.3,51.5V92.23H43.73V51.5H134.3m1-1H42.73V93.23H135.3V50.5Z"/><polygon class="cls-35" points="138.66 96.39 3.36 96.39 0 93.23 135.3 93.23 138.66 96.39"/><polygon class="cls-5" points="46.09 96.39 3.36 96.39 0 93.23 42.73 93.23 46.09 96.39"/><rect class="cls-36" y="50.5" width="42.73" height="42.73"/><polygon class="cls-37" points="138.66 96.39 135.3 93.23 135.3 50.5 138.66 53.67 138.66 96.39"/><rect class="cls-2" x="53.41" y="59.01" width="28.88" height="3.76"/><line class="cls-38" x1="53.41" y1="69.51" x2="125.6" y2="69.51"/><line class="cls-38" x1="53.41" y1="76.24" x2="125.6" y2="76.24"/><line class="cls-38" x1="53.41" y1="82.97" x2="110.51" y2="82.97"/><rect class="cls-30" x="9.13" y="59.63" width="24.47" height="24.47" rx="3.34"/><path class="cls-41" d="M28.88,68.11a3.76,3.76,0,1,0-3.76,3.76A3.76,3.76,0,0,0,28.88,68.11Z"/><path class="cls-2" d="M12.47,84.1H30.26a3.34,3.34,0,0,0,3.34-3.34V69.51c-13.26-.6-24.47,8.34-24.47,8.34v2.91A3.33,3.33,0,0,0,12.47,84.1Z"/></g></g></g></svg>