<svg xmlns="http://www.w3.org/2000/svg" width="751.502" height="769.845" viewBox="0 0 751.502 769.845">
  <g id="Group_34" data-name="Group 34" transform="translate(-140.771 -1969.913)">
    <path id="Path_266" data-name="Path 266" d="M288.05,514.37H414.764a26.281,26.281,0,0,1-26.281,26.281H314.341A26.281,26.281,0,0,1,288.06,514.37h0Z" transform="translate(140.276 1968.949)" fill="#ecf2fa"/>
    <path id="Path_267" data-name="Path 267" d="M415.347,516.59a26.281,26.281,0,0,1-13.864,21.55A25.382,25.382,0,0,1,396.6,539.9l.09-.24a10.84,10.84,0,0,0-9.932-14.423L291.1,522.489a25.789,25.789,0,0,1-1.168-5.919,14.967,14.967,0,0,0,2.116.15h33.428v2.336h6.987V516.72h17.887c-.19.409-.4.818-.589,1.218l26.511-.05V516.72h37.1A14.393,14.393,0,0,0,415.347,516.59Z" transform="translate(140.272 1968.945)" fill="#454094"/>
    <rect id="Rectangle_164" data-name="Rectangle 164" width="2.336" height="21.031" transform="translate(445.264 2486.823)" fill="#274b5b"/>
    <rect id="Rectangle_165" data-name="Rectangle 165" width="2.336" height="18.106" transform="translate(447.021 2486.823)" fill="#274b5b" opacity="0.2"/>
    <rect id="Rectangle_166" data-name="Rectangle 166" width="2.336" height="18.106" transform="translate(461.624 2486.823)" fill="#274b5b" opacity="0.2"/>
    <rect id="Rectangle_167" data-name="Rectangle 167" width="2.336" height="18.106" transform="translate(490.83 2486.823)" fill="#274b5b" opacity="0.2"/>
    <rect id="Rectangle_168" data-name="Rectangle 168" width="2.336" height="18.106" transform="translate(505.432 2486.823)" fill="#274b5b" opacity="0.2"/>
    <rect id="Rectangle_169" data-name="Rectangle 169" width="2.336" height="18.106" transform="translate(520.035 2486.823)" fill="#274b5b" opacity="0.2"/>
    <rect id="Rectangle_170" data-name="Rectangle 170" width="2.336" height="18.106" transform="translate(515.364 2486.823)" fill="#fff" opacity="0.3"/>
    <rect id="Rectangle_171" data-name="Rectangle 171" width="2.336" height="18.106" transform="translate(501.34 2486.823)" fill="#fff" opacity="0.3"/>
    <rect id="Rectangle_172" data-name="Rectangle 172" width="2.336" height="18.106" transform="translate(486.737 2486.823)" fill="#fff" opacity="0.3"/>
    <rect id="Rectangle_173" data-name="Rectangle 173" width="2.336" height="18.106" transform="translate(472.134 2486.823)" fill="#fff" opacity="0.3"/>
    <rect id="Rectangle_174" data-name="Rectangle 174" width="2.336" height="18.106" transform="translate(457.531 2486.823)" fill="#fff" opacity="0.3"/>
    <rect id="Rectangle_175" data-name="Rectangle 175" width="2.336" height="18.106" transform="translate(442.929 2486.823)" fill="#fff" opacity="0.3"/>
    <rect id="Rectangle_176" data-name="Rectangle 176" width="2.336" height="18.106" transform="translate(476.227 2486.823)" fill="#274b5b" opacity="0.2"/>
    <rect id="Rectangle_177" data-name="Rectangle 177" width="2.336" height="21.031" transform="translate(459.777 2486.823)" fill="#274b5b"/>
    <rect id="Rectangle_178" data-name="Rectangle 178" width="2.336" height="21.031" transform="translate(474.28 2486.823)" fill="#274b5b"/>
    <rect id="Rectangle_179" data-name="Rectangle 179" width="2.336" height="21.031" transform="translate(488.783 2486.823)" fill="#274b5b"/>
    <rect id="Rectangle_180" data-name="Rectangle 180" width="2.336" height="21.031" transform="translate(517.799 2486.823)" fill="#274b5b"/>
    <rect id="Rectangle_181" data-name="Rectangle 181" width="2.336" height="21.031" transform="translate(532.302 2486.823)" fill="#274b5b"/>
    <rect id="Rectangle_182" data-name="Rectangle 182" width="2.336" height="21.031" transform="translate(503.286 2486.823)" fill="#274b5b"/>
    <path id="Path_268" data-name="Path 268" d="M741.241,318.958H598.2q-.28-4.092-.669-8.175H653.6a10.221,10.221,0,1,0,0-20.442h-59.12c-2.895-14.064-7.486-27.219-14.543-38.349-13.824-21.789-35.414-32.619-56.655-34.935s-42.551,3.134-63.472,8.983c-27.858,7.786-60.587,14.792-81.578-10.98-12.417-15.242-17.368-40.235-12.976-62a158.243,158.243,0,0,1,4.352-15.8H443.3a10.221,10.221,0,0,0,0-20.442H375.062a57.656,57.656,0,0,0,.759-9.522,52.5,52.5,0,0,0-19.544-39.926C345.547,58.971,332.991,56,320.644,53.831c-27.579-4.851-56.026-6.288-82.846,3.124-25.423-27.429-61.216-36.7-92.418-23.736a60.537,60.537,0,0,0-23.207,16.459h60.937a9.932,9.932,0,1,1,0,19.863H111.562c-4.6,14.972-4.552,32.33-4.322,48.779,0,1.847.05,3.693.08,5.54H136.1a10.221,10.221,0,1,1,0,20.442H107.62l.16,11.1h66.876a10.221,10.221,0,1,1,0,20.442h-66.6c0,2.336.06,4.711.1,7.077.24,16.6.419,33.657-3.9,49.208-13.325,47.9-60.527,59.439-86.02,97.309h107.35a10.221,10.221,0,0,1,0,20.442H7.825q-1.4,3.713-2.535,7.6H81.149a10.221,10.221,0,1,1,0,20.442H1a137.654,137.654,0,0,0,7.766,65.308C26.1,488.413,66.386,511.31,104.286,510.6s73.982-21.031,107.949-43.559c25.672-17.048,52.532-36.083,81.119-33.4,29.146,2.745,54.079,27.5,80.45,44.358,42.92,27.449,92.947,34.466,139.181,19.514,20.442-6.608,40.694-17.847,55.667-37.69,14.523-19.274,22.778-44.767,26.87-71.866h39.137a9.932,9.932,0,0,0,0-19.863H597.778c.739-9.143,1.078-18.346,1.088-27.449V339.42H741.241a10.221,10.221,0,0,0,0-20.442Z" transform="translate(140.811 1969.853)" fill="#eae6ff" opacity="0.4"/>
    <path id="Path_269" data-name="Path 269" d="M265.681,488.954s-47.741,59.429-54.189,142.734a3.663,3.663,0,0,1-7.127.868c-16.36-49.777-51.085-193.64,57.244-281.477" transform="translate(140.466 1969.253)" fill="#7a74d1"/>
    <path id="Path_270" data-name="Path 270" d="M210.8,636.676a3.613,3.613,0,0,0,1.417,1.926,3.653,3.653,0,0,1-5.51-1.926c-16.36-49.777-51.085-193.64,57.244-281.476l.1,3.314C160.581,446.57,194.638,587.568,210.8,636.676Z" transform="translate(140.461 1969.245)" fill="#f6df9e"/>
    <path id="Path_271" data-name="Path 271" d="M200.14,617.4c-.28-23.1,5.61-47.312,13.345-68.992,3.993-11.1,8.394-21.52,12.736-30.783A197.532,197.532,0,0,0,244.7,424.683c-.858-18.536-1.557-39.317-1.557-57.832,8.554-10.6,5.65-11.558,17.338-21.031l4.092,137.854s-47.751,59.429-54.2,142.734a3.543,3.543,0,0,1-1.387,2.665" transform="translate(140.439 1969.263)" fill="#4a41a3" opacity="0.8"/>
    <path id="Path_272" data-name="Path 272" d="M200,539.533a2,2,0,1,1,2-2A2.046,2.046,0,0,1,200,539.533Zm0-2.924a.878.878,0,1,0,.878.878.878.878,0,0,0-.878-.878Z" transform="translate(140.443 1968.91)" fill="#274b5b"/>
    <path id="Path_273" data-name="Path 273" d="M199.993,541.276a3.793,3.793,0,1,1,3.793-3.793A3.793,3.793,0,0,1,199.993,541.276Zm0-5.26a.605.605,0,1,0,0-.02Z" transform="translate(140.446 1968.914)" fill="#274b5b" opacity="0.2"/>
    <path id="Path_274" data-name="Path 274" d="M208.166,463.993a2,2,0,1,1,2-2A2.046,2.046,0,0,1,208.166,463.993Zm0-2.925a.854.854,0,1,1,0,.05Z" transform="translate(140.428 1969.05)" fill="#274b5b"/>
    <path id="Path_275" data-name="Path 275" d="M208.163,465.786a3.8,3.8,0,1,1,2.7-1.1A3.793,3.793,0,0,1,208.163,465.786Zm0-5.26a1.457,1.457,0,1,0,1.457,1.457,1.457,1.457,0,0,0-1.457-1.457Z" transform="translate(140.431 1969.054)" fill="#274b5b" opacity="0.2"/>
    <path id="Path_276" data-name="Path 276" d="M495.506,463.993a2,2,0,1,1,2-2,2.046,2.046,0,0,1-2,2Zm0-2.925a.853.853,0,1,1,0,.05Z" transform="translate(139.894 1969.05)" fill="#274b5b"/>
    <path id="Path_277" data-name="Path 277" d="M495.5,465.786a3.793,3.793,0,1,1,3.793-3.793A3.793,3.793,0,0,1,495.5,465.786Zm0-5.26a1.457,1.457,0,1,0,1.053.42,1.457,1.457,0,0,0-1.053-.42Z" transform="translate(139.898 1969.054)" fill="#274b5b" opacity="0.2"/>
    <path id="Path_278" data-name="Path 278" d="M493.746,463.993a2,2,0,1,1,2-2A2.046,2.046,0,0,1,493.746,463.993Zm0-2.925a.853.853,0,1,1,0,.05Z" transform="translate(139.898 1969.05)" fill="#274b5b"/>
    <path id="Path_279" data-name="Path 279" d="M493.743,465.786a3.793,3.793,0,1,1,3.793-3.793A3.793,3.793,0,0,1,493.743,465.786Zm0-5.26a1.457,1.457,0,1,0,1.457,1.457,1.457,1.457,0,0,0-1.457-1.457Z" transform="translate(139.901 1969.054)" fill="#274b5b" opacity="0.2"/>
    <rect id="Rectangle_183" data-name="Rectangle 183" width="2.336" height="191.594" transform="translate(358.236 2373.504)" fill="#274b5b"/>
    <rect id="Rectangle_184" data-name="Rectangle 184" width="2.336" height="196.265" transform="translate(360.572 2368.832)" fill="#274b5b" opacity="0.2"/>
    <rect id="Rectangle_185" data-name="Rectangle 185" width="2.336" height="191.594" transform="translate(355.9 2373.504)" fill="#fff" opacity="0.3"/>
    <rect id="Rectangle_186" data-name="Rectangle 186" width="2.336" height="172.898" transform="translate(371.671 2348.39)" fill="#274b5b"/>
    <rect id="Rectangle_187" data-name="Rectangle 187" width="2.336" height="172.898" transform="translate(374.007 2348.39)" fill="#274b5b" opacity="0.2"/>
    <rect id="Rectangle_188" data-name="Rectangle 188" width="2.336" height="172.898" transform="translate(369.336 2348.39)" fill="#fff" opacity="0.3"/>
    <path id="Path_280" data-name="Path 280" d="M472.262,696.826A47.352,47.352,0,0,1,425,649.444V603.33h12.846v46.114a34.5,34.5,0,1,0,56.834-26.291L503,613.361a47.352,47.352,0,0,1-26.83,83.275Q474.208,696.826,472.262,696.826Z" transform="translate(140.022 1968.784)" fill="#fca70c" opacity="0.2"/>
    <path id="Path_281" data-name="Path 281" d="M466.969,676.815a28.624,28.624,0,0,1-4.162-.309l1.867-12.716a15.312,15.312,0,1,0-6.917-27.439L450.08,626.04a28.168,28.168,0,1,1,16.889,50.776Z" transform="translate(139.975 1968.752)" fill="#ffe430" opacity="0.2"/>
    <circle id="Ellipse_17" data-name="Ellipse 17" cx="9.343" cy="9.343" r="9.343" transform="translate(601.813 2546.412)" fill="#ffe430" opacity="0.2"/>
    <path id="Path_282" data-name="Path 282" d="M489.541,638.476a3.614,3.614,0,0,1-1.417,1.926,3.653,3.653,0,0,0,5.51-1.926C509.993,588.7,544.718,444.837,436.39,357l-.1,3.314C539.758,448.32,505.691,589.278,489.541,638.476Z" transform="translate(140.001 1969.241)" fill="#fff"/>
    <path id="Path_283" data-name="Path 283" d="M435.13,494.8s47.741,59.429,54.189,142.734a3.663,3.663,0,0,0,7.127.869c16.359-49.777,51.085-193.64-57.244-281.477" transform="translate(140.003 1969.242)" fill="#7a74d1"/>
    <path id="Path_284" data-name="Path 284" d="M500.71,623.265c.279-23.1-5.61-47.312-13.345-68.992-3.993-11.1-8.394-21.52-12.736-30.783a197.542,197.542,0,0,1-18.476-92.947c.858-18.535,1.557-39.317,1.557-57.832-8.554-10.6-5.649-11.558-17.338-21.031L436.28,489.534s47.751,59.429,54.2,142.734a3.543,3.543,0,0,0,1.387,2.625" transform="translate(140.001 1969.251)" fill="#4a41a3" opacity="0.8"/>
    <path id="Path_285" data-name="Path 285" d="M500.776,540.113a2,2,0,1,1,2-2,2.046,2.046,0,0,1-2,2Zm0-2.925a.873.873,0,1,1,0,.01Z" transform="translate(139.885 1968.909)" fill="#274b5b"/>
    <path id="Path_286" data-name="Path 286" d="M500.773,541.866a3.793,3.793,0,1,1,3.793-3.793A3.793,3.793,0,0,1,500.773,541.866Zm0-5.26a1.457,1.457,0,1,0,1.457,1.457,1.457,1.457,0,0,0-1.457-1.457Z" transform="translate(139.888 1968.912)" fill="#274b5b" opacity="0.2"/>
    <rect id="Rectangle_189" data-name="Rectangle 189" width="2.336" height="197.433" transform="translate(620.508 2372.925)" fill="#274b5b"/>
    <rect id="Rectangle_190" data-name="Rectangle 190" width="2.336" height="181.662" transform="translate(618.173 2372.336)" fill="#274b5b" opacity="0.2"/>
    <rect id="Rectangle_191" data-name="Rectangle 191" width="2.336" height="191.594" transform="translate(622.844 2378.764)" fill="#fff" opacity="0.3"/>
    <rect id="Rectangle_192" data-name="Rectangle 192" width="2.336" height="172.898" transform="translate(607.073 2353.65)" fill="#274b5b"/>
    <rect id="Rectangle_193" data-name="Rectangle 193" width="2.336" height="167.059" transform="translate(604.738 2353.65)" fill="#274b5b" opacity="0.2"/>
    <rect id="Rectangle_194" data-name="Rectangle 194" width="2.336" height="172.898" transform="translate(609.409 2353.65)" fill="#fff" opacity="0.3"/>
    <path id="Path_287" data-name="Path 287" d="M493.006,641.237a8.355,8.355,0,0,1-1-.06,7.985,7.985,0,0,1-7.057-7.366c-6.268-81.049-52.772-139.74-53.241-140.359l6.827-5.49c.5.619,12.377,15.511,25.173,40.924,11.479,22.768,25.782,58.491,29.665,100.693,7.915-24.954,19.484-71.148,16.819-121.474-3.374-63.811-28.2-114.9-73.763-151.828l5.52-6.807a201.046,201.046,0,0,1,58.192,75.659c10.88,24.714,17.208,52.472,18.8,82.516,2.865,54.139-10.261,103.488-18.346,128.082A7.985,7.985,0,0,1,493.006,641.237Z" transform="translate(140.009 1969.256)" fill="#274b5b"/>
    <path id="Path_288" data-name="Path 288" d="M93.091,771.256H51.619a6.428,6.428,0,0,1,0-12.846H93.091a6.428,6.428,0,0,1,0,12.846Z" transform="translate(140.726 1968.496)" fill="#ffe430" opacity="0.2"/>
    <path id="Path_289" data-name="Path 289" d="M276.29,713.612a53.72,53.72,0,0,1-34.845-94.664l8.324,9.792a40.924,40.924,0,1,0,67.365,31.152V558.85H329.98V659.9a53.69,53.69,0,0,1-53.7,53.71Z" transform="translate(140.397 1968.867)" fill="#fca70c" opacity="0.2"/>
    <path id="Path_290" data-name="Path 290" d="M374.874,738.289A30.084,30.084,0,0,1,344.84,708.2V608.62h12.846v99.595a17.228,17.228,0,1,0,28.387-13.126L394.4,685.3a30.084,30.084,0,0,1-17.048,52.9Q376.112,738.289,374.874,738.289Z" transform="translate(140.17 1968.774)" fill="#ffe430" opacity="0.2"/>
    <rect id="Rectangle_195" data-name="Rectangle 195" width="12.846" height="30.962" transform="translate(483.823 2528.296)" fill="#ffe430" opacity="0.2"/>
    <path id="Path_291" data-name="Path 291" d="M279.689,687.9a28.512,28.512,0,0,1-4.162-.309l1.876-12.666a15.312,15.312,0,1,0-6.917-27.439L262.81,637.17A28.168,28.168,0,1,1,279.689,687.9Z" transform="translate(140.323 1968.732)" fill="#ffe430" opacity="0.2"/>
    <path id="Path_292" data-name="Path 292" d="M388.082,670.544A20.442,20.442,0,1,1,408.524,650.1a20.442,20.442,0,0,1-20.442,20.442Zm0-28.038a7.6,7.6,0,1,0,7.6,7.6,7.6,7.6,0,0,0-7.6-7.6Z" transform="translate(140.128 1968.735)" fill="#ffe430" opacity="0.2"/>
    <path id="Path_293" data-name="Path 293" d="M286.842,618.464a20.442,20.442,0,1,1,20.442-20.442,20.442,20.442,0,0,1-20.442,20.442Zm0-28.038a7.6,7.6,0,1,0,7.6,7.6,7.6,7.6,0,0,0-7.6-7.6Z" transform="translate(140.316 1968.832)" fill="#ffe430" opacity="0.2"/>
    <path id="Path_294" data-name="Path 294" d="M564.822,618.464a20.442,20.442,0,1,1,20.442-20.442A20.442,20.442,0,0,1,564.822,618.464Zm0-28.038a7.6,7.6,0,1,0,7.6,7.6,7.6,7.6,0,0,0-7.6-7.6Z" transform="translate(139.8 1968.832)" fill="#ffe430" opacity="0.2"/>
    <circle id="Ellipse_18" data-name="Ellipse 18" cx="4.671" cy="4.671" r="4.671" transform="translate(299.825 2604.823)" fill="#ffe430" opacity="0.2"/>
    <circle id="Ellipse_19" data-name="Ellipse 19" cx="4.671" cy="4.671" r="4.671" transform="translate(560.34 2684.845)" fill="#fca70c" opacity="0.2"/>
    <path id="Path_295" data-name="Path 295" d="M582.306,743.1H569.46a34.506,34.506,0,0,0-34.476-34.466H526.22V695.79h8.764A47.372,47.372,0,0,1,582.306,743.1Z" transform="translate(139.834 1968.613)" fill="#fca70c" opacity="0.2"/>
    <path id="Path_296" data-name="Path 296" d="M113.636,745.5H100.79a93.117,93.117,0,0,1,93.037-93.017h18.555v12.846H193.827A80.251,80.251,0,0,0,113.636,745.5Z" transform="translate(140.623 1968.693)" fill="#ffe430" opacity="0.2"/>
    <path id="Path_297" data-name="Path 297" d="M675.079,742.981H662.223a99.415,99.415,0,0,0-99.265-99.305H540.28V630.83h22.678A112.281,112.281,0,0,1,675.079,742.981Z" transform="translate(139.807 1968.733)" fill="#ffe430" opacity="0.2"/>
    <path id="Path_298" data-name="Path 298" d="M176.836,743.1H164a47.372,47.372,0,0,1,47.312-47.312h8.764v12.846h-8.764A34.506,34.506,0,0,0,176.836,743.1Z" transform="translate(140.506 1968.613)" fill="#fca70c" opacity="0.2"/>
    <path id="Path_299" data-name="Path 299" d="M603.728,771.256H114.818a6.428,6.428,0,1,1,0-12.846H603.728a6.428,6.428,0,0,1,0,12.846Z" transform="translate(140.61 1968.496)" fill="#ffe430" opacity="0.2"/>
    <path id="Path_300" data-name="Path 300" d="M28.8,771.256a6.056,6.056,0,0,1-1.258-.13,6.739,6.739,0,0,1-1.208-.359,7.19,7.19,0,0,1-1.108-.589,6.791,6.791,0,0,1-1-.8,6.357,6.357,0,0,1-1.387-2.086,6.806,6.806,0,0,1-.359-1.208,6.209,6.209,0,0,1,0-2.515,6.808,6.808,0,0,1,.359-1.208,7.23,7.23,0,0,1,.589-1.108,6.43,6.43,0,0,1,1.777-1.777,7.2,7.2,0,0,1,1.108-.589,6.729,6.729,0,0,1,1.208-.359,6.269,6.269,0,0,1,2.515,0,6.73,6.73,0,0,1,1.208.359,7.2,7.2,0,0,1,1.108.589,6.43,6.43,0,0,1,1.777,1.777,7.2,7.2,0,0,1,.589,1.108,7.368,7.368,0,0,1,.369,1.208,6.488,6.488,0,0,1,0,2.515,7.366,7.366,0,0,1-.369,1.208,7.19,7.19,0,0,1-.589,1.108,6.368,6.368,0,0,1-.8,1,6.773,6.773,0,0,1-1,.8,7.2,7.2,0,0,1-1.108.589,6.75,6.75,0,0,1-1.208.359A6.075,6.075,0,0,1,28.8,771.256Z" transform="translate(140.769 1968.496)" fill="#ffe430" opacity="0.2"/>
    <path id="Path_301" data-name="Path 301" d="M670.1,771.256H628.628a6.428,6.428,0,0,1,0-12.846h41.463a6.428,6.428,0,0,1,0,12.846Z" transform="translate(139.655 1968.496)" fill="#ffe430" opacity="0.2"/>
    <path id="Path_302" data-name="Path 302" d="M692.988,771.256a6.051,6.051,0,0,1-1.258-.13,6.737,6.737,0,0,1-1.208-.359,7.181,7.181,0,0,1-1.108-.589,6.766,6.766,0,0,1-1-.8,6.342,6.342,0,0,1-.8-1,7.209,7.209,0,0,1-.589-1.108,7.4,7.4,0,0,1-.369-1.208,6.489,6.489,0,0,1,0-2.515,7.4,7.4,0,0,1,.369-1.208,7.2,7.2,0,0,1,.589-1.108,6.427,6.427,0,0,1,1.777-1.777,7.174,7.174,0,0,1,1.108-.589,6.742,6.742,0,0,1,1.208-.359,6.269,6.269,0,0,1,2.515,0,6.745,6.745,0,0,1,1.208.359,7.182,7.182,0,0,1,1.108.589,6.427,6.427,0,0,1,1.777,1.777,7.25,7.25,0,0,1,.589,1.108,6.758,6.758,0,0,1,.359,1.208,6.211,6.211,0,0,1,0,2.515,6.762,6.762,0,0,1-.359,1.208,7.256,7.256,0,0,1-.589,1.108,6.411,6.411,0,0,1-.8,1,6.793,6.793,0,0,1-1,.8,7.177,7.177,0,0,1-1.108.589,6.74,6.74,0,0,1-1.208.359A6.054,6.054,0,0,1,692.988,771.256Z" transform="translate(139.536 1968.496)" fill="#ffe430" opacity="0.2"/>
    <path id="Path_303" data-name="Path 303" d="M207.211,640.647a7.985,7.985,0,0,1-7.6-5.54c-8.085-24.594-21.211-73.942-18.346-128.082,1.587-30.044,7.915-57.8,18.8-82.516a201.047,201.047,0,0,1,58.192-75.659l5.52,6.807c-45.565,36.931-70.379,88.016-73.763,151.828-2.665,50.326,8.9,96.5,16.819,121.474,3.883-42.2,18.186-77.925,29.665-100.693,12.806-25.393,24.674-40.285,25.173-40.924l6.827,5.49h0c-.18.23-11.978,14.972-24.295,39.586-11.4,22.658-25.672,58.541-28.946,100.813A7.985,7.985,0,0,1,208.2,640.6,8.456,8.456,0,0,1,207.211,640.647Z" transform="translate(140.475 1969.257)" fill="#274b5b"/>
    <path id="Path_304" data-name="Path 304" d="M360.585,5.732a12.976,12.976,0,0,0-19.464,0C313.073,37.483,234,139.563,234,282.258c0,139.67,30.284,202.384,42.1,221.528,2.525,4.092,7.985,6.718,13.974,6.718H411.54c5.989,0,11.509-2.615,13.974-6.718,11.808-19.144,42.1-81.848,42.1-221.528C467.675,139.563,388.642,37.473,360.585,5.732Z" transform="translate(140 1969.902)" fill="#a2a7f4"/>
    <rect id="Rectangle_196" data-name="Rectangle 196" width="2.336" height="385.523" transform="translate(489.662 2093.714)" fill="#274b5b"/>
    <rect id="Rectangle_197" data-name="Rectangle 197" width="2.336" height="385.523" transform="translate(487.326 2093.714)" fill="#274b5b" opacity="0.2"/>
    <rect id="Rectangle_198" data-name="Rectangle 198" width="2.336" height="385.523" transform="translate(491.997 2093.714)" fill="#fff" opacity="0.3"/>
    <path id="Path_305" data-name="Path 305" d="M428.208,120.313H271.14a514.866,514.866,0,0,1,33.637-66.776q1.677-2.8,3.334-5.48c11.5-17.228,21.63-30.433,28.767-39.187a13.874,13.874,0,0,1,21.53,0,548.831,548.831,0,0,1,41.233,58.7l.4.669C409.263,83.492,418.875,100.919,428.208,120.313Z" transform="translate(140.307 1969.897)" fill="#ecf2fa"/>
    <path id="Path_306" data-name="Path 306" d="M427.114,117.639l-8.584-.24C404.346,96.648,365.1,54.307,311,48.468c1-1.867,4.991-6.688,5.989-8.474,7.766-12.766,14.832-20.332,20.612-28.517a16.968,16.968,0,0,1,27.4-.359,458.492,458.492,0,0,1,33.168,51.175c.12.22,1.417.439,1.537.669C408.129,78.243,423.611,86.677,427.114,117.639Z" transform="translate(140.233 1969.896)" fill="#5146af"/>
    <path id="Path_307" data-name="Path 307" d="M294.855,105.5a2.925,2.925,0,0,1-2.565-4.312c2.845-5.23,5.989-10.481,9.073-15.571,2.994-4.931,6.049-9.981,8.784-15.042a2.925,2.925,0,1,1,5.13,2.795c-2.795,5.13-5.909,10.281-8.913,15.262s-6.169,10.221-8.983,15.341A2.925,2.925,0,0,1,294.855,105.5Z" transform="translate(140.268 1969.776)" fill="#fff"/>
    <path id="Path_308" data-name="Path 308" d="M380.267,226.4c3.753-6.089,6.428-11.249,6.837-11.059s-1.757,5.669-5.57,11.838-7.746,10.57-8.045,10.311S376.534,232.5,380.267,226.4Z" transform="translate(140.117 1969.505)" fill="#426270"/>
    <ellipse id="Ellipse_20" data-name="Ellipse 20" cx="8.644" cy="0.749" rx="8.644" ry="0.749" transform="matrix(0.507, -0.862, 0.862, 0.507, 520.69, 2206.495)" fill="#426270"/>
    <path id="Path_309" data-name="Path 309" d="M381.741,230.463c5.49,2.216,10.071,3.743,9.981,4.152s-4.921-.509-10.51-2.765-9.712-4.991-9.512-5.29S376.252,228.257,381.741,230.463Z" transform="translate(140.121 1969.484)" fill="#426270"/>
    <path id="Path_310" data-name="Path 310" d="M386.983,228.992c4.991,2.336,9.173,3.8,9.063,4.222s-4.6-.489-9.682-2.865-8.664-5.26-8.434-5.56S381.992,226.666,386.983,228.992Z" transform="translate(140.109 1969.487)" fill="#426270"/>
    <path id="Path_311" data-name="Path 311" d="M313.216,513.437H291.9c-5.989,0-11.509-2.625-13.974-6.737-11.808-19.184-42.092-82.057-42.092-222.067,0-137.1,72.615-236.81,103.348-272.872C311.539,44.479,251.76,131.048,251.76,267.524l35.045-49.169C286.126,220.252,215.348,426.119,313.216,513.437Z" transform="translate(140.373 1969.883)" fill="#fff"/>
    <path id="Path_312" data-name="Path 312" d="M298.885,510.8h-5.839c-5.989,0-11.509-2.625-13.974-6.737C267.254,484.875,237,422.012,237,282,237,144.9,309.565,45.183,340.3,9.15c-15.681,18.585-41.832,54.638-61.436,107.4h0C258.75,161.716,242.8,217.722,242.8,281.983c0,140.01,30.284,202.883,42.092,222.067C287.416,508.182,292.9,510.8,298.885,510.8Z" transform="translate(140.371 1969.887)" fill="#fff"/>
    <path id="Path_313" data-name="Path 313" d="M385.172,510.52h21.3c5.989,0,11.509-2.615,13.974-6.707,11.808-19.134,42.092-81.848,42.092-221.418.05-136.646-72.595-236.131-103.3-272.094,27.609,32.609,93.826,118.929,93.826,255.006l-30.383-49.029C423.371,218.173,483.04,423.452,385.172,510.52Z" transform="translate(140.144 1969.885)" fill="#4a41a3" opacity="0.8"/>
    <path id="Path_314" data-name="Path 314" d="M276.494,166.728a117.245,117.245,0,0,1,3.583-11.539,86.4,86.4,0,0,1,3.933-9.053c2.565-4.991,4.8-7.805,5.729-7.416s.469,3.883-.779,9.233c-.629,2.665-1.427,5.839-2.336,9.3l-2.925,11.3-2.815,11.369c-.858,3.5-1.667,6.638-2.376,9.283-1.447,5.3-2.665,8.594-3.713,8.484s-1.637-3.613-1.507-9.243a86.446,86.446,0,0,1,.848-9.832,117.231,117.231,0,0,1,2.356-11.888Z" transform="translate(140.303 1969.647)" fill="#fff"/>
    <ellipse id="Ellipse_21" data-name="Ellipse 21" cx="8.764" cy="3.723" rx="8.764" ry="3.723" transform="matrix(0.178, -0.984, 0.984, 0.178, 405.34, 2189.083)" fill="#fff"/>
    <path id="Path_315" data-name="Path 315" d="M332.969,32.828c4.841-3.5,9.343-6.558,12.646-8.664s5.43-3.314,5.55-3.114-1.8,1.667-4.991,3.993l-12.367,8.983L321.45,43.009c-3.174,2.286-5.19,3.653-5.32,3.5s1.657-1.817,4.671-4.332S328.138,36.361,332.969,32.828Z" transform="translate(140.224 1969.865)" fill="#426270"/>
    <path id="Path_316" data-name="Path 316" d="M334.774,38.537c10.64-4.092,19.224-7.516,19.394-7.127.08.19-2,1.288-5.36,2.865s-8.175,3.613-13.495,5.649-10.241,3.733-13.824,4.811-5.839,1.637-5.909,1.457C315.42,45.793,324.124,42.619,334.774,38.537Z" transform="translate(140.225 1969.846)" fill="#426270"/>
    <path id="Path_317" data-name="Path 317" d="M340.426,190.993a2,2,0,1,1,2-2A2.046,2.046,0,0,1,340.426,190.993Zm0-2.925a.854.854,0,1,1,0,.05Z" transform="translate(140.182 1969.557)" fill="#274b5b"/>
    <path id="Path_318" data-name="Path 318" d="M340.423,192.786a3.793,3.793,0,1,1,3.793-3.793A3.793,3.793,0,0,1,340.423,192.786Zm0-5.26a1.452,1.452,0,1,1,0,.01Z" transform="translate(140.186 1969.561)" fill="#274b5b" opacity="0.2"/>
    <path id="Path_319" data-name="Path 319" d="M340.426,150.993a2,2,0,1,1,2-2A2.046,2.046,0,0,1,340.426,150.993Zm0-2.925a.371.371,0,1,0,0-.07Z" transform="translate(140.182 1969.631)" fill="#274b5b"/>
    <path id="Path_320" data-name="Path 320" d="M340.423,152.706a3.793,3.793,0,1,1,3.793-3.793A3.793,3.793,0,0,1,340.423,152.706Zm0-5.26a1.457,1.457,0,1,0,1.457,1.457,1.457,1.457,0,0,0-1.457-1.457Z" transform="translate(140.186 1969.635)" fill="#274b5b" opacity="0.2"/>
    <path id="Path_321" data-name="Path 321" d="M360.906,163.833a2,2,0,1,1,2-2A2.046,2.046,0,0,1,360.906,163.833Zm0-2.925a.878.878,0,1,0,.878.878A.878.878,0,0,0,360.906,160.908Z" transform="translate(140.144 1969.608)" fill="#274b5b"/>
    <path id="Path_322" data-name="Path 322" d="M360.9,165.576a3.793,3.793,0,1,1,3.793-3.793,3.793,3.793,0,0,1-3.793,3.793Zm0-5.26a1.457,1.457,0,1,0,1.457,1.457,1.457,1.457,0,0,0-1.457-1.457Z" transform="translate(140.148 1969.611)" fill="#274b5b" opacity="0.2"/>
    <path id="Path_323" data-name="Path 323" d="M360.906,309.543a2,2,0,1,1,2-2A2.046,2.046,0,0,1,360.906,309.543Zm0-2.925a.873.873,0,1,1,0,.01Z" transform="translate(140.144 1969.337)" fill="#274b5b"/>
    <path id="Path_324" data-name="Path 324" d="M360.9,311.3A3.793,3.793,0,1,1,364.7,307.5,3.793,3.793,0,0,1,360.9,311.3Zm0-5.26a.607.607,0,1,0,0-.04Z" transform="translate(140.148 1969.34)" fill="#274b5b" opacity="0.2"/>
    <path id="Path_325" data-name="Path 325" d="M361.5,339.393a2,2,0,1,1,2-2,2.046,2.046,0,0,1-2,2Zm0-2.925a.878.878,0,1,0,.878.878.878.878,0,0,0-.878-.878Z" transform="translate(140.143 1969.282)" fill="#274b5b"/>
    <path id="Path_326" data-name="Path 326" d="M361.493,341.136a3.793,3.793,0,1,1,3.793-3.793,3.793,3.793,0,0,1-3.793,3.793Zm0-5.26a1.461,1.461,0,1,1,0,.01Z" transform="translate(140.147 1969.285)" fill="#274b5b" opacity="0.2"/>
    <path id="Path_327" data-name="Path 327" d="M338.666,301.353a2,2,0,1,1,2-2A2.046,2.046,0,0,1,338.666,301.353Zm0-2.925a.878.878,0,1,0,.878.878A.878.878,0,0,0,338.666,298.428Z" transform="translate(140.185 1969.352)" fill="#274b5b"/>
    <path id="Path_328" data-name="Path 328" d="M338.663,303.1a3.793,3.793,0,1,1,3.793-3.793,3.793,3.793,0,0,1-3.793,3.793Zm0-5.26a1.452,1.452,0,1,1,0,.01Z" transform="translate(140.189 1969.356)" fill="#274b5b" opacity="0.2"/>
    <path id="Path_329" data-name="Path 329" d="M338.666,331.193a2,2,0,1,1,2-2A2.046,2.046,0,0,1,338.666,331.193Zm0-2.925a.873.873,0,1,1,0,.01Z" transform="translate(140.185 1969.297)" fill="#274b5b"/>
    <path id="Path_330" data-name="Path 330" d="M338.663,332.986a3.793,3.793,0,1,1,3.793-3.793,3.793,3.793,0,0,1-3.793,3.793Zm0-5.26a.607.607,0,1,0,0-.04Z" transform="translate(140.189 1969.3)" fill="#274b5b" opacity="0.2"/>
    <path id="Path_331" data-name="Path 331" d="M340.426,231.123a2,2,0,1,1,2-2,2.046,2.046,0,0,1-2,2Zm0-2.925a.873.873,0,1,1,0,.01Z" transform="translate(140.182 1969.483)" fill="#274b5b"/>
    <path id="Path_332" data-name="Path 332" d="M340.423,232.876a3.793,3.793,0,1,1,3.793-3.793A3.793,3.793,0,0,1,340.423,232.876Zm0-5.26a1.457,1.457,0,1,0,1.457,1.457A1.457,1.457,0,0,0,340.423,227.616Z" transform="translate(140.186 1969.486)" fill="#274b5b" opacity="0.2"/>
    <path id="Path_333" data-name="Path 333" d="M387.246,108.823a2,2,0,1,1,2-2A2.046,2.046,0,0,1,387.246,108.823Zm0-2.925a.878.878,0,1,0,.878.878A.878.878,0,0,0,387.246,105.9Z" transform="translate(140.095 1969.71)" fill="#274b5b"/>
    <path id="Path_334" data-name="Path 334" d="M387.243,110.566a3.793,3.793,0,1,1,3.793-3.793,3.793,3.793,0,0,1-3.793,3.793Zm0-5.26a1.457,1.457,0,1,0,1.457,1.457,1.457,1.457,0,0,0-1.457-1.457Z" transform="translate(140.099 1969.713)" fill="#274b5b" opacity="0.2"/>
    <path id="Path_335" data-name="Path 335" d="M313.506,108.823a2,2,0,1,1,2-2A2.046,2.046,0,0,1,313.506,108.823Zm0-2.925a.878.878,0,1,0,.878.878A.878.878,0,0,0,313.506,105.9Z" transform="translate(140.232 1969.71)" fill="#274b5b"/>
    <path id="Path_336" data-name="Path 336" d="M313.5,110.566a3.793,3.793,0,1,1,3.793-3.793A3.793,3.793,0,0,1,313.5,110.566Zm0-5.26a1.457,1.457,0,1,0,1.457,1.457,1.457,1.457,0,0,0-1.457-1.457Z" transform="translate(140.236 1969.713)" fill="#274b5b" opacity="0.2"/>
    <path id="Path_337" data-name="Path 337" d="M350.376,108.823a2,2,0,1,1,2-2A2.046,2.046,0,0,1,350.376,108.823Zm0-2.925a.878.878,0,1,0,.878.878A.878.878,0,0,0,350.376,105.9Z" transform="translate(140.164 1969.71)" fill="#274b5b"/>
    <path id="Path_338" data-name="Path 338" d="M350.373,110.566a3.793,3.793,0,1,1,3.793-3.793,3.793,3.793,0,0,1-3.793,3.793Zm0-5.26a1.457,1.457,0,1,0,1.457,1.457,1.457,1.457,0,0,0-1.457-1.457Z" transform="translate(140.167 1969.713)" fill="#274b5b" opacity="0.2"/>
    <path id="Path_339" data-name="Path 339" d="M340.426,375.673a2,2,0,1,1,2-2,2.046,2.046,0,0,1-2,2Zm0-2.925a.878.878,0,1,0,.878.878.878.878,0,0,0-.878-.878Z" transform="translate(140.182 1969.214)" fill="#274b5b"/>
    <path id="Path_340" data-name="Path 340" d="M340.423,377.426a3.793,3.793,0,1,1,3.793-3.793A3.793,3.793,0,0,1,340.423,377.426Zm0-5.26a1.457,1.457,0,1,0,1.457,1.457A1.457,1.457,0,0,0,340.423,372.166Z" transform="translate(140.186 1969.218)" fill="#274b5b" opacity="0.2"/>
    <path id="Path_341" data-name="Path 341" d="M340.426,418.583a2,2,0,1,1,2-2A2.046,2.046,0,0,1,340.426,418.583Zm0-2.925a.873.873,0,1,1,0,.01Z" transform="translate(140.182 1969.135)" fill="#274b5b"/>
    <path id="Path_342" data-name="Path 342" d="M340.423,420.336a3.793,3.793,0,1,1,3.793-3.793A3.793,3.793,0,0,1,340.423,420.336Zm0-5.26a1.457,1.457,0,1,0,1.457,1.457A1.457,1.457,0,0,0,340.423,415.076Z" transform="translate(140.186 1969.138)" fill="#274b5b" opacity="0.2"/>
    <path id="Path_343" data-name="Path 343" d="M340.426,461.5a2,2,0,1,1,2-2,2.046,2.046,0,0,1-2,2Zm0-2.924a.873.873,0,1,1,0,.01Z" transform="translate(140.182 1969.055)" fill="#274b5b"/>
    <path id="Path_344" data-name="Path 344" d="M340.423,463.256a3.793,3.793,0,1,1,3.793-3.793A3.793,3.793,0,0,1,340.423,463.256Zm0-5.26a1.457,1.457,0,1,0,1.457,1.457A1.457,1.457,0,0,0,340.423,458Z" transform="translate(140.186 1969.058)" fill="#274b5b" opacity="0.2"/>
    <path id="Path_345" data-name="Path 345" d="M340.426,504.423a2,2,0,1,1,2-2A2.046,2.046,0,0,1,340.426,504.423Zm0-2.925a.878.878,0,1,0,.878.878.878.878,0,0,0-.878-.878Z" transform="translate(140.182 1968.975)" fill="#274b5b"/>
    <path id="Path_346" data-name="Path 346" d="M340.423,506.166a3.793,3.793,0,1,1,3.793-3.793A3.793,3.793,0,0,1,340.423,506.166Zm0-5.26a1.457,1.457,0,1,0,1.457,1.457,1.457,1.457,0,0,0-1.457-1.457Z" transform="translate(140.186 1968.979)" fill="#274b5b" opacity="0.2"/>
    <circle id="Ellipse_22" data-name="Ellipse 22" cx="49.358" cy="49.358" r="49.358" transform="translate(444.685 2160.889)" fill="#5c7869" opacity="0.6"/>
    <text id="BRAND" transform="translate(457 2201.516)" fill="#123b4f" font-size="20" font-family="Quicksand-Bold, Quicksand" font-weight="700"><tspan x="0" y="0">BRAND</tspan></text>
    <path id="Path_347" data-name="Path 347" d="M353.81,269.01a42.92,42.92,0,1,1,42.92-42.92,42.92,42.92,0,0,1-42.92,42.92Zm0-82.946a40.016,40.016,0,1,0,40.036,40.022,40.016,40.016,0,0,0-40.036-40.022Z" transform="translate(140.233 1969.564)" fill="#274b5b" opacity="0.6"/>
    <path id="Path_348" data-name="Path 348" d="M319.057,236.513a1.168,1.168,0,0,1-1.148-1,47.312,47.312,0,0,1,5.759-31.012c3.064-5.25,6.658-8.394,10.7-9.353a1.169,1.169,0,1,1,.539,2.276c-3.394.8-6.5,3.573-9.223,8.245a44.966,44.966,0,0,0-5.47,29.475,1.168,1.168,0,0,1-1,1.337Z" transform="translate(140.222 1969.542)" fill="#fff" opacity="0.6"/>
    <path id="Path_351" data-name="Path 351" d="M353.787,281.544a55.487,55.487,0,1,1,55.487-55.487A55.487,55.487,0,0,1,353.787,281.544Zm0-98.716a43.23,43.23,0,1,0,43.23,43.23,43.23,43.23,0,0,0-43.23-43.23Z" transform="translate(140.257 1969.588)" fill="#274b5b"/>
    <path id="Path_352" data-name="Path 352" d="M322.51,508.807V423.565A114.257,114.257,0,0,1,352.943,345.8h0A114.277,114.277,0,0,1,382.8,422.966V508.7" transform="translate(140.212 1969.262)" fill="#ecf2fa"/>
    <path id="Path_353" data-name="Path 353" d="M357.047,357.213a111.264,111.264,0,0,0-26.87,72.515v83.764H323.19V429.728A111.242,111.242,0,0,1,353.6,353.3l0,0Q355.37,355.226,357.047,357.213Z" transform="translate(140.211 1969.248)" fill="#fff"/>
    <path id="Path_354" data-name="Path 354" d="M376.955,428.122v84.243l-24.175.05c22.5-45.216,15.361-106.133,10.8-137.185A111.224,111.224,0,0,1,376.955,428.122Z" transform="translate(140.155 1969.208)" fill="#454094"/>
    <path id="Path_355" data-name="Path 355" d="M298.927,357.479c3.753-6.089,6.428-11.249,6.837-11.059s-1.757,5.669-5.57,11.838-7.746,10.57-8.045,10.311S295.194,363.578,298.927,357.479Z" transform="translate(140.268 1969.261)" fill="#426270"/>
    <ellipse id="Ellipse_24" data-name="Ellipse 24" cx="8.644" cy="0.749" rx="8.644" ry="0.749" transform="matrix(0.507, -0.862, 0.862, 0.507, 439.494, 2337.341)" fill="#426270"/>
    <path id="Path_356" data-name="Path 356" d="M300.4,361.543c5.49,2.216,10.071,3.743,9.981,4.152s-4.921-.509-10.51-2.765-9.712-4.991-9.512-5.29S294.9,359.347,300.4,361.543Z" transform="translate(140.272 1969.241)" fill="#426270"/>
    <path id="Path_357" data-name="Path 357" d="M305.6,360.052c4.991,2.336,9.173,3.8,9.063,4.222s-4.6-.489-9.682-2.865-8.664-5.26-8.434-5.56S300.632,357.756,305.6,360.052Z" transform="translate(140.26 1969.244)" fill="#426270"/>
    <path id="Path_358" data-name="Path 358" d="M341,403.173a2,2,0,1,1,2-2,2.046,2.046,0,0,1-2,2Zm0-2.924a.873.873,0,1,1,0,.01Z" transform="translate(140.181 1969.163)" fill="#274b5b"/>
    <path id="Path_359" data-name="Path 359" d="M340.993,404.926a3.793,3.793,0,1,1,3.793-3.793A3.793,3.793,0,0,1,340.993,404.926Zm0-5.26a1.457,1.457,0,1,0,1.457,1.457A1.457,1.457,0,0,0,340.993,399.666Z" transform="translate(140.184 1969.167)" fill="#274b5b" opacity="0.2"/>
    <path id="Path_360" data-name="Path 360" d="M341,488.613a2,2,0,1,1,2-2,2.046,2.046,0,0,1-2,2Zm0-2.925a.873.873,0,1,1,0,.01Z" transform="translate(140.181 1969.005)" fill="#274b5b"/>
    <path id="Path_361" data-name="Path 361" d="M340.993,490.366a3.793,3.793,0,1,1,3.793-3.793A3.793,3.793,0,0,1,340.993,490.366Zm0-5.26a1.457,1.457,0,1,0,1.457,1.457,1.457,1.457,0,0,0-1.457-1.457Z" transform="translate(140.184 1969.008)" fill="#274b5b" opacity="0.2"/>
    <path id="Path_362" data-name="Path 362" d="M341,445.893a2,2,0,1,1,2-2,2.046,2.046,0,0,1-2,2Zm0-2.925a.864.864,0,1,1,0,.03Z" transform="translate(140.181 1969.084)" fill="#274b5b"/>
    <path id="Path_363" data-name="Path 363" d="M340.993,447.646a3.793,3.793,0,1,1,3.793-3.793A3.793,3.793,0,0,1,340.993,447.646Zm0-5.26a1.457,1.457,0,1,0,1.457,1.457,1.457,1.457,0,0,0-1.457-1.457Z" transform="translate(140.184 1969.087)" fill="#274b5b" opacity="0.2"/>
    <path id="Path_364" data-name="Path 364" d="M359.736,403.173a2,2,0,1,1,2-2,2.046,2.046,0,0,1-2,2Zm0-2.924a.873.873,0,1,1,0,.01Z" transform="translate(140.146 1969.163)" fill="#274b5b"/>
    <path id="Path_365" data-name="Path 365" d="M359.733,404.926a3.793,3.793,0,1,1,3.793-3.793A3.793,3.793,0,0,1,359.733,404.926Zm0-5.26a1.457,1.457,0,1,0,1.457,1.457A1.457,1.457,0,0,0,359.733,399.666Z" transform="translate(140.15 1969.167)" fill="#274b5b" opacity="0.2"/>
    <path id="Path_366" data-name="Path 366" d="M359.736,488.613a2,2,0,1,1,2-2,2.046,2.046,0,0,1-2,2Zm0-2.925a.873.873,0,1,1,0,.01Z" transform="translate(140.146 1969.005)" fill="#274b5b"/>
    <path id="Path_367" data-name="Path 367" d="M359.733,490.366a3.793,3.793,0,1,1,3.793-3.793A3.793,3.793,0,0,1,359.733,490.366Zm0-5.26a1.457,1.457,0,1,0,1.457,1.457A1.457,1.457,0,0,0,359.733,485.106Z" transform="translate(140.15 1969.008)" fill="#274b5b" opacity="0.2"/>
    <path id="Path_368" data-name="Path 368" d="M359.736,445.893a2,2,0,1,1,2-2,2.046,2.046,0,0,1-2,2Zm0-2.925a.864.864,0,1,1,0,.03Z" transform="translate(140.146 1969.084)" fill="#274b5b"/>
    <path id="Path_369" data-name="Path 369" d="M359.733,447.646a3.793,3.793,0,1,1,3.793-3.793A3.793,3.793,0,0,1,359.733,447.646Zm0-5.26a1.457,1.457,0,1,0,1.457,1.457,1.457,1.457,0,0,0-1.457-1.457Z" transform="translate(140.15 1969.087)" fill="#274b5b" opacity="0.2"/>
    <rect id="Rectangle_199" data-name="Rectangle 199" width="2.336" height="158.296" transform="translate(489.662 2320.941)" fill="#274b5b"/>
    <rect id="Rectangle_200" data-name="Rectangle 200" width="2.336" height="150.7" transform="translate(487.905 2326.78)" fill="#274b5b" opacity="0.2"/>
    <rect id="Rectangle_201" data-name="Rectangle 201" width="2.336" height="150.121" transform="translate(492.586 2326.78)" fill="#fff" opacity="0.8"/>
    <path id="Path_370" data-name="Path 370" d="M387.345,545.615H313.163a30.7,30.7,0,0,1-30.673-30.623V510.61H418.008v4.382a30.7,30.7,0,0,1-30.663,30.623Zm-95.652-26.281a21.959,21.959,0,0,0,21.46,17.527h74.182a21.959,21.959,0,0,0,21.43-17.527Z" transform="translate(140.286 1968.956)" fill="#274b5b"/>
    <path id="Path_371" data-name="Path 371" d="M412.787,154.559h0a15.811,15.811,0,0,1,19.085,11.658l3.763,15.571a15.811,15.811,0,0,1-11.678,19.124h0a15.811,15.811,0,0,1-19.084-11.658l-3.763-15.571a15.81,15.81,0,0,1,11.678-19.124Z" transform="translate(140.067 1969.618)" fill="#fff" opacity="0.15"/>
    <path id="Path_372" data-name="Path 372" d="M398.727,147.675h0a15.811,15.811,0,0,1,21.959,4.222h0a15.811,15.811,0,0,1-4.222,21.959h0a15.811,15.811,0,0,1-21.959-4.222h0a15.811,15.811,0,0,1,4.222-21.959Z" transform="translate(140.083 1969.635)" fill="#fff" opacity="0.15"/>
    <path id="Path_373" data-name="Path 373" d="M411.867,267.979c3.753-6.089,6.428-11.249,6.837-11.059s-1.757,5.669-5.57,11.838-7.746,10.57-8.045,10.311S408.134,274.048,411.867,267.979Z" transform="translate(140.058 1969.428)" fill="#426270"/>
    <ellipse id="Ellipse_25" data-name="Ellipse 25" cx="8.644" cy="0.749" rx="8.644" ry="0.749" transform="matrix(0.507, -0.862, 0.862, 0.507, 552.235, 2247.973)" fill="#426270"/>
    <path id="Path_374" data-name="Path 374" d="M413.341,271.993c5.49,2.216,10.071,3.743,9.981,4.152s-4.921-.509-10.51-2.765-9.712-4.991-9.512-5.29S407.851,269.807,413.341,271.993Z" transform="translate(140.062 1969.407)" fill="#426270"/>
    <path id="Path_375" data-name="Path 375" d="M418.553,270.512c4.991,2.336,9.173,3.8,9.063,4.222s-4.6-.489-9.682-2.865-8.664-5.26-8.434-5.56S413.582,268.216,418.553,270.512Z" transform="translate(140.05 1969.41)" fill="#426270"/>
    <path id="Path_376" data-name="Path 376" d="M364.467,87.7C368.22,81.611,370.9,76.45,371.3,76.64s-1.757,5.669-5.57,11.838S358,99.048,357.69,98.8,360.734,93.8,364.467,87.7Z" transform="translate(140.146 1969.762)" fill="#426270"/>
    <ellipse id="Ellipse_26" data-name="Ellipse 26" cx="8.644" cy="0.749" rx="8.644" ry="0.749" transform="matrix(0.507, -0.862, 0.862, 0.507, 504.923, 2068.051)" fill="#426270"/>
    <path id="Path_377" data-name="Path 377" d="M365.981,91.763c5.49,2.216,10.071,3.743,9.981,4.152s-4.921-.509-10.51-2.765-9.712-4.991-9.512-5.29S360.452,89.567,365.981,91.763Z" transform="translate(140.15 1969.741)" fill="#426270"/>
    <path id="Path_378" data-name="Path 378" d="M371.143,90.272c4.991,2.336,9.173,3.8,9.063,4.222s-4.6-.489-9.682-2.865-8.664-5.26-8.434-5.56S366.172,88,371.143,90.272Z" transform="translate(140.139 1969.745)" fill="#426270"/>
    <rect id="Rectangle_202" data-name="Rectangle 202" width="146.028" height="2.925" transform="translate(413.433 2085.25)" fill="#8bbacc"/>
    <rect id="Rectangle_203" data-name="Rectangle 203" width="160.152" height="8.764" transform="translate(411.287 2087.186)" fill="#274b5b"/>
    <path id="Path_379" data-name="Path 379" d="M410.352,514.882H288.967c-7.586,0-14.393-3.374-17.747-8.794-12.856-20.851-42.75-84.4-42.75-223.983,0-136.8,72.066-236.949,103.048-273.661a23.746,23.746,0,0,1,36.3,0h0C398.763,45.156,470.879,145.32,470.849,282.105c0,139.55-29.944,203.122-42.751,223.973C424.795,511.5,417.987,514.882,410.352,514.882ZM349.645,8.764a14.986,14.986,0,0,0-11.429,5.32C307.852,50.067,237.234,148.194,237.234,282.105c0,59.889,5.55,112,16.479,154.992,8.983,35.424,19.5,55.547,24.954,64.39,1.717,2.775,5.849,4.631,10.291,4.631H410.352c4.462,0,8.594-1.857,10.281-4.621,5.46-8.864,15.97-28.946,24.954-64.41,10.98-42.99,16.489-95.133,16.489-154.992,0-133.9-70.6-232.038-100.962-268.012h0a14.892,14.892,0,0,0-10.191-5.27Q350.283,8.764,349.645,8.764Z" transform="translate(140.386 1969.904)" fill="#274b5b"/>
    <path id="Path_380" data-name="Path 380" d="M324.544,510.08H315.78V426.306a115.176,115.176,0,0,1,31.611-79.432l3.2-3.394,3.184,3.414a115.255,115.255,0,0,1,31.032,78.853V509.99h-8.764V425.747a106.492,106.492,0,0,0-25.5-69.291,106.412,106.412,0,0,0-26,69.87Z" transform="translate(140.224 1969.267)" fill="#274b5b"/>
    <path id="Path_381" data-name="Path 381" d="M495.506,462.873a2,2,0,1,1,2-2,2.046,2.046,0,0,1-2,2Zm0-2.925a.878.878,0,1,0,.878.878.878.878,0,0,0-.878-.878Z" transform="translate(139.894 1969.052)" fill="#274b5b"/>
    <path id="Path_382" data-name="Path 382" d="M495.5,464.616a3.793,3.793,0,1,1,3.793-3.793,3.793,3.793,0,0,1-3.793,3.793Zm0-5.26a1.457,1.457,0,1,0,1.457,1.457,1.457,1.457,0,0,0-1.457-1.457Z" transform="translate(139.898 1969.056)" fill="#274b5b" opacity="0.2"/>
  </g>
</svg>
