<?xml version="1.0" encoding="utf-8"?>
<!-- Generator: Adobe Illustrator 23.0.0, SVG Export Plug-In . SVG Version: 6.00 Build 0)  -->
<svg version="1.1" id="Group_96" xmlns="http://www.w3.org/2000/svg" xmlns:xlink="http://www.w3.org/1999/xlink" x="0px" y="0px"
	 viewBox="0 0 813.1 643.3" style="enable-background:new 0 0 813.1 643.3;" xml:space="preserve">
<style type="text/css">
	.st0{fill:#D7F1F9;}
	.st1{fill:#6BC5F2;}
	.st2{fill:none;stroke:#2A47AF;stroke-miterlimit:10;}
	.st3{fill:#2A47AF;}
	.st4{fill:#FFFFFF;}
	.st5{fill:#9EEBEF;}
	.st6{fill:#FFADB7;}
	.st7{fill:#1C3A8E;}
</style>
<path id="Path_486" class="st0" d="M766,624.5H78c-5.2,0-9.4,4.2-9.4,9.4l0,0c0,5.2,4.2,9.4,9.4,9.4h688c5.2,0,9.4-4.2,9.4-9.4l0,0
	C775.4,628.7,771.2,624.5,766,624.5z"/>
<g id="Group_94" transform="translate(0 0)">
	<path id="Path_487" class="st1" d="M206.6,422.9v-39.1h-17.3c-2.2-9.7-6.1-19-11.4-27.4l12.2-12.2l-27.7-27.7l-12.2,12.2
		c-8.4-5.3-17.7-9.2-27.4-11.4V300H83.7v17.3c-9.7,2.2-19,6.1-27.4,11.4l-12.2-12.2l-27.7,27.7l12.2,12.2
		c-5.3,8.4-9.2,17.7-11.4,27.4H0v39.1h17.3c2.2,9.7,6.1,19,11.4,27.4l-12.2,12.2l27.7,27.7L56.3,478c8.4,5.3,17.7,9.2,27.4,11.4
		v17.3h39.1v-17.3c9.7-2.2,19-6.1,27.4-11.4l12.2,12.2l27.7-27.7l-12.2-12.2c5.3-8.4,9.2-17.7,11.4-27.4H206.6z M103.3,446.3
		c-23.8,0-43-19.3-43-43s19.3-43,43-43c23.8,0,43,19.3,43,43C146.3,427.1,127.1,446.3,103.3,446.3
		C103.3,446.3,103.3,446.3,103.3,446.3z"/>
	<g id="Group_81" transform="translate(659.676 352.592)">
		<path id="Path_488" class="st2" d="M0,200.8c23.5-71.5,68.2-134.3,128-180"/>
		<path id="Path_489" class="st3" d="M13.5,99.2c-6.9-13.8,1.4-31.9,1.4-31.9s19.4,4.3,26.3,18.2s-1.4,31.9-1.4,31.9
			S20.3,113.1,13.5,99.2z"/>
		<path id="Path_490" class="st3" d="M73.7,92c15.5-0.2,28.1,15.2,28.1,15.2S89.4,122.8,74,123s-28.1-15.2-28.1-15.2
			S58.2,92.2,73.7,92z"/>
		<path id="Path_491" class="st3" d="M96.9,58c13.2-0.1,24,12.9,24,12.9s-10.5,13.3-23.7,13.5s-24-12.9-24-12.9S83.7,58.1,96.9,58z"
			/>
		<path id="Path_492" class="st3" d="M52.9,55.1c-3.8-12,5.2-25.4,5.2-25.4s15,5.9,18.8,17.9S71.7,73,71.7,73S56.7,67.1,52.9,55.1z"
			/>
		<path id="Path_493" class="st3" d="M90,25C86.8,15,94.3,3.6,94.3,3.6s12.7,5,15.8,15.1s-4.3,21.4-4.3,21.4S93.1,35.1,90,25z"/>
		<path id="Path_494" class="st3" d="M129.4,31.5c10.2,2.6,15.8,15,15.8,15s-10.9,8.1-21.2,5.4s-15.9-15-15.9-15
			S119.2,28.9,129.4,31.5z"/>
		<path id="Path_495" class="st3" d="M131.9,4.2c8.3-6.5,21.5-3.5,21.5-3.5s-0.2,13.6-8.4,20.1s-21.5,3.5-21.5,3.5
			S123.7,10.7,131.9,4.2z"/>
	</g>
	<g id="Group_82" transform="translate(100.984)">
		<path id="Path_496" class="st2" d="M143.6,219.7c-18.8-76-60.2-144.6-118.8-196.6"/>
		<path id="Path_497" class="st3" d="M137.5,113.3c8.2-13.8,1-33.2,1-33.2s-20.5,3-28.7,16.8s-1,33.2-1,33.2
			S129.3,127.2,137.5,113.3z"/>
		<path id="Path_498" class="st3" d="M75.7,101.2c-16-1.4-30.4,13.6-30.4,13.6s11.6,17.2,27.6,18.5s30.4-13.6,30.4-13.6
			S91.7,102.5,75.7,101.2z"/>
		<path id="Path_499" class="st3" d="M54.2,64.1c-13.7-1.2-25.9,11.6-25.9,11.6s9.9,14.6,23.5,15.8s25.9-11.6,25.9-11.6
			S67.8,65.3,54.2,64.1z"/>
		<path id="Path_500" class="st3" d="M100,64.5c4.8-12.1-3.4-26.8-3.4-26.8s-16.1,5-20.9,17.1s3.4,26.8,3.4,26.8S95.2,76.6,100,64.5
			z"/>
		<path id="Path_501" class="st3" d="M64,30.5C68,20.3,61.1,7.9,61.1,7.9s-13.5,4.2-17.6,14.4s2.8,22.5,2.8,22.5S59.9,40.7,64,30.5z
			"/>
		<path id="Path_502" class="st3" d="M22.5,34.1c-10.8,2-17.6,14.4-17.6,14.4s10.7,9.2,21.5,7.3s17.6-14.4,17.6-14.4
			S33.3,32.2,22.5,34.1z"/>
		<path id="Path_503" class="st3" d="M22,5.6C14-1.8,0,0.3,0,0.3s-0.9,14.1,7.2,21.5s22,5.3,22,5.3S30.1,13,22,5.6z"/>
	</g>
	<g id="Group_87" transform="translate(122.046 169.954)">
		<path id="Rectangle_223" class="st3" d="M11.6,0h555.2c6.4,0,11.6,5.2,11.6,11.6v371.6c0,6.4-5.2,11.6-11.6,11.6H11.6
			c-6.4,0-11.6-5.2-11.6-11.6V11.6C0,5.2,5.2,0,11.6,0z"/>
		<path id="Rectangle_224" class="st0" d="M521,32.7v329.2c0,3-2.4,5.4-5.4,5.4H32.7c-3,0-5.4-2.4-5.4-5.4V32.7c0-3,2.4-5.4,5.4-5.4
			h482.9C518.6,27.4,521,29.8,521,32.7z"/>
		<path id="Path_504" class="st4" d="M564,202.6c0-8.6-7-15.6-15.6-15.6c-8.6,0-15.6,7-15.6,15.6c0,8.6,7,15.6,15.6,15.6
			C557,218.2,564,211.2,564,202.6C564,202.6,564,202.6,564,202.6z"/>
		<g id="Group_83" transform="translate(220.662 66.519)">
			<path id="Path_507" class="st1" d="M121.6,20.9C108.3,7.5,90.2,0,71.3,0v71.3l0,0l-50.4,50.4c27.8,27.8,72.9,27.8,100.8,0
				C149.5,93.8,149.5,48.7,121.6,20.9L121.6,20.9z"/>
			<path id="Path_508" class="st3" d="M20.9,20.9C-7,48.7-7,93.8,20.9,121.6c0,0,0,0,0,0l50.4-50.4V0C52.4,0,34.2,7.5,20.9,20.9z"/>
		</g>
		<g id="Group_84" transform="translate(57.973 67.885)">
			<path id="Path_509" class="st1" d="M133.5,35.8C120.7,13.6,97.1,0,71.6,0v33.3c21.1,0,38.3,17.1,38.3,38.2
				c0,6.7-1.8,13.3-5.1,19.1c-10.6,18.3-34,24.6-52.2,14c-5.8-3.4-10.6-8.2-14-14L9.6,107.3c19.8,34.2,63.5,45.9,97.8,26.2
				c22.1-12.8,35.8-36.4,35.8-61.9C143.1,59,139.8,46.6,133.5,35.8z"/>
			<path id="Path_510" class="st3" d="M35.8,9.6c-34.2,19.7-46,63.5-26.2,97.7c0,0,0,0,0,0.1l28.8-16.6c-10.6-18.3-4.3-41.7,14-52.3
				c5.8-3.4,12.4-5.1,19.1-5.1V0C59,0,46.7,3.3,35.8,9.6z"/>
		</g>
		<g id="Group_85" transform="translate(74.647 241.842)">
			<path id="Path_511" class="st3" d="M98.1,0H5.6C2.5,0,0,2.5,0,5.5c0,0,0,0,0,0l0,0c0,3.1,2.5,5.5,5.5,5.5c0,0,0,0,0,0h92.6
				c3.1,0,5.5-2.5,5.6-5.5c0,0,0,0,0,0l0,0C103.7,2.5,101.2,0,98.1,0C98.1,0,98.1,0,98.1,0z"/>
			<path id="Path_512" class="st3" d="M98.1,24.9H5.6c-3.1,0-5.6,2.5-5.6,5.6l0,0l0,0C0,33.5,2.5,36,5.6,36l0,0h92.6
				c3.1,0,5.6-2.5,5.6-5.6l0,0l0,0C103.7,27.4,101.2,24.9,98.1,24.9L98.1,24.9z"/>
			<path id="Path_513" class="st4" d="M64.9,50.6H5.6c-3.1,0-5.6,2.5-5.6,5.5c0,0,0,0,0,0l0,0c0,3.1,2.5,5.5,5.5,5.5c0,0,0,0,0,0
				h59.3c3.1,0,5.5-2.5,5.5-5.5c0,0,0,0,0,0l0,0C70.4,53.1,67.9,50.6,64.9,50.6C64.9,50.6,64.9,50.6,64.9,50.6z"/>
		</g>
		<path id="Path_514" class="st1" d="M311.3,329.6H86.7c-4.5,0-8.1,3.6-8.1,8.1l0,0c0,4.5,3.6,8.1,8.1,8.1h224.7
			c4.5,0,8.1-3.6,8.1-8.1l0,0C319.5,333.3,315.8,329.6,311.3,329.6z"/>
		<g id="Group_86" transform="translate(241.998 233.926)">
			<rect id="Rectangle_225" x="0" y="27.1" class="st3" width="20.4" height="38.9"/>
			<rect id="Rectangle_226" x="34.9" y="12.8" class="st1" width="20.4" height="53.1"/>
			<rect id="Rectangle_227" x="71.5" y="0" class="st3" width="20.4" height="65.9"/>
		</g>
	</g>
	<g id="Group_89" transform="translate(603.44 111.232)">
		<ellipse id="Ellipse_35" class="st5" cx="79.8" cy="79.8" rx="79.8" ry="79.8"/>
		<g id="Group_88" transform="translate(34.761 37.367)">
			<path id="Path_515" class="st4" d="M87.9,77.5L68.5,58.1l3.4-3.4l-5.3-5.3c8-17.5,0.3-38.2-17.2-46.2c-17.5-8-38.2-0.3-46.2,17.2
				c-8,17.5-0.3,38.2,17.2,46.2c9.2,4.2,19.8,4.2,29,0l5.3,5.3l3.4-3.4l19.4,19.4L87.9,77.5z M19.9,49.8c-8.3-8.3-8.3-21.7,0-30
				c8.3-8.3,21.7-8.3,30,0s8.3,21.7,0,30c0,0,0,0,0,0C41.6,58.1,28.2,58.1,19.9,49.8C19.9,49.8,19.9,49.8,19.9,49.8L19.9,49.8z"/>
		</g>
	</g>
	<g id="Group_90" transform="translate(603.525 483.077)">
		<path id="Path_516" class="st1" d="M75.8,43.2l6,13.8c0.2,0.5,0.6,0.9,1.1,1.1l13.8,6c1.1,0.5,1.5,1.7,1.1,2.8
			c-0.2,0.5-0.6,0.9-1.1,1.1l-13.8,6c-0.5,0.2-0.9,0.6-1.1,1.1l-6,13.8c-0.5,1.1-1.7,1.5-2.8,1.1c-0.5-0.2-0.9-0.6-1.1-1.1l-6-13.8
			c-0.2-0.5-0.6-0.9-1.1-1.1l-13.8-6c-1.1-0.5-1.5-1.7-1.1-2.8c0.2-0.5,0.6-0.9,1.1-1.1l13.8-6c0.5-0.2,0.9-0.6,1.1-1.1l6-13.8
			c0.5-1.1,1.7-1.5,2.8-1.1C75.2,42.4,75.5,42.7,75.8,43.2z"/>
		<path id="Path_517" class="st1" d="M21.1,4.9L26,16.2c0.2,0.4,0.5,0.7,0.9,0.9l11.2,4.9c0.9,0.4,1.3,1.4,0.9,2.2
			c-0.2,0.4-0.5,0.7-0.9,0.9l-11.2,4.9c-0.4,0.2-0.7,0.5-0.9,0.9L21.1,42c-0.4,0.9-1.4,1.3-2.2,0.9c-0.4-0.2-0.7-0.5-0.9-0.9
			l-4.9-11.2c-0.2-0.4-0.5-0.7-0.9-0.9L1,25.1c-0.9-0.4-1.3-1.4-0.9-2.2c0.2-0.4,0.5-0.7,0.9-0.9l11.2-4.9c0.4-0.2,0.7-0.5,0.9-0.9
			L18,4.9c0.4-0.9,1.4-1.3,2.2-0.9C20.6,4.2,21,4.5,21.1,4.9z"/>
		<path id="Path_518" class="st1" d="M84.2,0.6l2.9,6.6c0.1,0.2,0.3,0.4,0.5,0.5l6.6,2.9c0.5,0.2,0.7,0.8,0.5,1.3
			c-0.1,0.2-0.3,0.4-0.5,0.5l-6.6,2.9c-0.2,0.1-0.4,0.3-0.5,0.5l-2.9,6.6c-0.2,0.5-0.8,0.7-1.3,0.5c-0.2-0.1-0.4-0.3-0.5-0.5
			l-2.9-6.6c-0.1-0.2-0.3-0.4-0.5-0.5l-6.6-2.9c-0.5-0.2-0.7-0.8-0.5-1.3c0.1-0.2,0.3-0.4,0.5-0.5L79,7.7c0.2-0.1,0.4-0.3,0.5-0.5
			l2.9-6.6c0.2-0.5,0.8-0.7,1.3-0.5C83.9,0.2,84.1,0.4,84.2,0.6z"/>
	</g>
	<g id="Group_91" transform="translate(53.933 89.202)">
		<path id="Path_519" class="st1" d="M37.8,1.3l6,13.8c0.2,0.5,0.6,0.9,1.1,1.1l13.8,6c1.1,0.5,1.5,1.7,1.1,2.7
			c-0.2,0.5-0.6,0.9-1.1,1.1l-13.8,6c-0.5,0.2-0.9,0.6-1.1,1.1l-6,13.8c-0.5,1.1-1.7,1.5-2.8,1.1c-0.5-0.2-0.9-0.6-1.1-1.1l-6-13.8
			c-0.2-0.5-0.6-0.9-1.1-1.1l-13.8-6c-1.1-0.5-1.5-1.7-1.1-2.7c0.2-0.5,0.6-0.9,1.1-1.1l13.8-6c0.5-0.2,0.9-0.6,1.1-1.1l6-13.8
			c0.5-1.1,1.7-1.5,2.8-1.1C37.2,0.4,37.6,0.8,37.8,1.3z"/>
		<path id="Path_520" class="st1" d="M21.1,78.1L26,89.3c0.2,0.4,0.5,0.7,0.9,0.9l11.2,4.9c0.9,0.4,1.3,1.4,0.9,2.2
			c-0.2,0.4-0.5,0.7-0.9,0.9l-11.2,4.9c-0.4,0.2-0.7,0.5-0.9,0.9l-4.9,11.2c-0.4,0.9-1.4,1.3-2.2,0.9c-0.4-0.2-0.7-0.5-0.9-0.9
			L13.1,104c-0.2-0.4-0.5-0.7-0.9-0.9L1,98.2c-0.9-0.4-1.3-1.4-0.9-2.2c0.2-0.4,0.5-0.7,0.9-0.9l11.2-4.9c0.4-0.2,0.7-0.5,0.9-0.9
			L18,78.1c0.4-0.9,1.4-1.3,2.2-0.9C20.7,77.4,21,77.7,21.1,78.1z"/>
		<path id="Path_521" class="st1" d="M68.4,75l2.9,6.6c0.1,0.2,0.3,0.4,0.5,0.5l6.6,2.9c0.5,0.2,0.7,0.8,0.5,1.3
			c-0.1,0.2-0.3,0.4-0.5,0.5l-6.6,2.9c-0.2,0.1-0.4,0.3-0.5,0.5l-2.9,6.6c-0.2,0.5-0.8,0.7-1.3,0.5c-0.2-0.1-0.4-0.3-0.5-0.5
			l-2.9-6.6c-0.1-0.2-0.3-0.4-0.5-0.5l-6.6-2.9c-0.5-0.2-0.7-0.8-0.5-1.3c0.1-0.2,0.3-0.4,0.5-0.5l6.6-2.9c0.2-0.1,0.4-0.3,0.5-0.5
			l2.9-6.6c0.2-0.5,0.8-0.7,1.3-0.5C68.1,74.6,68.3,74.8,68.4,75z"/>
	</g>
	<g id="Group_93" transform="translate(394.407 60.198)">
		<path id="Path_522" class="st1" d="M152.5,76.3C152.5,34.1,118.3,0,76.2,0C34.1,0,0,34.2,0,76.3c0,42.1,34.1,76.2,76.2,76.2
			c4.1,0,8.1-0.3,12.1-1c1.9-0.3,3.8-0.1,5.5,0.6l17.7,6.6l2.9-12.6c0.6-2.7,2.3-5.1,4.6-6.7C140,125.2,152.5,101.5,152.5,76.3z"/>
		<g id="Group_92" transform="translate(41.875 60.975)">
			<path id="Path_523" class="st4" d="M62.6,0H6.1C2.7,0,0,2.7,0,6.1l0,0c0,3.4,2.7,6.1,6.1,6.1h56.5c3.4,0,6.1-2.7,6.1-6.1l0,0
				C68.7,2.7,66,0,62.6,0z"/>
			<path id="Path_524" class="st4" d="M41,24.9H6.1C2.7,25,0,27.7,0,31l0,0c0,3.4,2.7,6.1,6.1,6.1H41c3.4,0,6.1-2.7,6.1-6.1l0,0
				C47.1,27.7,44.4,25,41,24.9z"/>
		</g>
	</g>
</g>
<g id="Group_95" transform="translate(438.037 233.515)">
	<path id="Path_525" class="st6" d="M19,74.4c0,0-0.6-30.4-5.9-31.3s-2.2,18-2.2,18s-7.1-0.6-9.3,2.8s-3.1,18,3.1,19.8
		S19,74.4,19,74.4z"/>
	<path id="Path_526" class="st7" d="M156.5,189.7c2.5,1.9-3.7,68.7-6.2,89.8s13.9,103,13.9,103l-16.3-0.8c0,0-29.3-86.7-29.9-97.9
		s-13-84.2-13-84.2L156.5,189.7z"/>
	<path id="Path_527" class="st3" d="M162.1,189.7c0,0-10.5,32.2-26.6,47.1s-35.9,47.7-35.9,47.7l5.6,97.9l-18.2-0.2
		c0,0-19.6-98.3-19.6-106.9s26.6-96.6,26.6-96.6L162.1,189.7z"/>
	<path id="Path_528" class="st6" d="M96.1,37.8c0,0-5.7,29.2,16.2,32s22.5-41.4,22.5-41.4s-26.2-7.6-28-5.2l-1.8,2.4L96.1,37.8z"/>
	<path id="Path_529" class="st5" d="M108.8,65.8l-1.7,0.1c-9.9,0.7-17.6,9.9-23.7,17.8l-31.6,34.7L19,74.4L4.7,83.7
		c0,0,36.5,68.8,50.8,65.7s31.6-22.9,31.6-22.9s-3.7,60.9-5.6,69c0,0,57.6,25.6,81.1,1.4l-6.6-99.5c-1.7-12-10.4-21.8-22.1-24.9
		L108.8,65.8z"/>
	<path id="Path_530" class="st3" d="M105.1,382.3v15.5H67.8c-1.5,0-2.8-1.3-2.8-2.8c0-1,0.5-1.9,1.4-2.4c6.4-3.7,15-8.4,20.5-10.5
		C92.8,379.9,99.3,379.9,105.1,382.3z"/>
	<path id="Path_531" class="st3" d="M164.1,382.3v15.5h-35.8c-1.8,0-3.2-1.4-3.2-3.2c0-1.2,0.6-2.2,1.6-2.8c6.2-3.6,14-7.8,19.2-9.7
		C151.8,379.9,158.3,379.9,164.1,382.3z"/>
	<path id="Path_532" class="st7" d="M109.8,97.6c0,0-16.9-14.4-8.5-28.4s14.8-21.7,13.2-30.1c0,0-0.6-10.7-8.2-4.1
		c0,0-3.2,5.2-10.2,3.2c0,0-6.2-30.4,26.9-37c34.4-6.9,44,18.6,41.3,34.8s-14.7,16.7,0.2,37.3S149.7,129.2,109.8,97.6z"/>
</g>
</svg>
