<?xml version="1.0" encoding="utf-8"?>
<!-- Generator: Adobe Illustrator 23.0.0, SVG Export Plug-In . SVG Version: 6.00 Build 0)  -->
<svg version="1.1" id="Layer_1" xmlns="http://www.w3.org/2000/svg" xmlns:xlink="http://www.w3.org/1999/xlink" x="0px" y="0px"
	 viewBox="0 0 799.4 684.3" style="enable-background:new 0 0 799.4 684.3;" xml:space="preserve">
<style type="text/css">
	.st0{fill:#D7F1F9;}
	.st1{fill:#9EEBEF;}
	.st2{fill:#6BC5F2;}
	.st3{fill:none;stroke:#2A47AF;stroke-miterlimit:10;}
	.st4{fill:#2A47AF;}
	.st5{fill:#FFFFFF;}
	.st6{fill:#1C3A8E;}
	.st7{fill:#FFADB7;}
	.st8{fill:#83E2E2;}
</style>
<g id="Group_97" transform="translate(0)">
	<path id="Path_533" class="st0" d="M727.2,642.1h-654c-4.9,0-9,3.7-9,8.3l0,0c0,4.5,4,8.3,9,8.3h654c4.9,0,9-3.7,9-8.3l0,0
		C736.1,645.9,732.1,642.1,727.2,642.1z"/>
	<g id="Group_112" transform="translate(0 0)">
		<g id="Group_107">
			<g id="Group_97-2" transform="translate(585.197 312.797)">
				<path id="Path_534" class="st1" d="M141.6,125.6c23.6,0.1,42.8-19.1,42.9-42.7S165.5,40.1,141.9,40c-5.3,0-10.5,0.9-15.4,2.8
					c-1.2-23.6-21.3-41.7-44.8-40.6C60.5,3.3,43.3,19.6,41.2,40.6c-22.7-6.8-46.5,6.2-53.3,28.8C-18.8,92-6,115.8,16.7,122.6
					c4,1.2,8.1,1.8,12.2,1.8L141.6,125.6z"/>
				<path id="Path_535" class="st2" d="M102.2,83.4H68.5v33.2H51.7l33.7,44l33.7-44h-16.8C102.2,116.7,102.2,83.4,102.2,83.4z"/>
			</g>
			<g id="Group_98" transform="translate(0 451.582)">
				<path id="Path_536" class="st3" d="M156.6,185.9C140,118.7,103.4,58.2,51.7,12.3"/>
				<path id="Path_537" class="st4" d="M174.5,135.2c7.7-13,0.9-31.2,0.9-31.2s-19.2,2.8-26.9,15.7c-7.7,13-0.9,31.2-0.9,31.2
					S166.8,148.1,174.5,135.2z"/>
				<path id="Path_538" class="st4" d="M151.4,91.9c7.2-12.2,0.9-29.3,0.9-29.3s-18.1,2.6-25.4,14.8s-0.9,29.3-0.9,29.3
					S144,104.2,151.4,91.9z"/>
				<path id="Path_539" class="st4" d="M96.7,81.2C82.5,80,69.8,93.1,69.8,93.1s10.3,15.2,24.4,16.4s26.8-11.9,26.8-11.9
					S110.8,82.4,96.7,81.2z"/>
				<path id="Path_540" class="st4" d="M77.7,48.5c-12-1-22.9,10.2-22.9,10.2s8.7,13,20.8,14c12.1,1,22.9-10.2,22.9-10.2
					S89.8,49.5,77.7,48.5z"/>
				<path id="Path_541" class="st4" d="M118.2,48.8c4.3-10.7-3.1-23.7-3.1-23.7S101,29.5,96.8,40.2c-4.3,10.7,3,23.7,3,23.7
					S114,59.5,118.2,48.8z"/>
				<path id="Path_542" class="st4" d="M86.3,18.8c3.6-9-2.5-19.9-2.5-19.9S71.9,2.6,68.3,11.5s2.5,19.9,2.5,19.9
					S82.8,27.7,86.3,18.8z"/>
				<path id="Path_543" class="st4" d="M49.8,22c-9.5,1.7-15.5,12.7-15.5,12.7s9.4,8.1,19,6.5c9.5-1.7,15.5-12.7,15.5-12.7
					S59.3,20.2,49.8,22z"/>
				<path id="Path_544" class="st4" d="M49.3-3.3c-7.1-6.5-19.4-4.6-19.4-4.6s-0.7,12.4,6.4,19s19.4,4.7,19.4,4.7S56.4,3.3,49.3-3.3
					z"/>
				<path id="Path_545" class="st4" d="M121.7,127.2c-14.6-3.8-30.2,7.8-30.2,7.8s8.1,17.7,22.7,21.5s30.2-7.8,30.2-7.8
					S136.4,131,121.7,127.2z"/>
			</g>
			<g id="Group_99" transform="translate(579.889 522.795)">
				<path id="Path_546" class="st3" d="M-13.5,92.4C30.2,50,85.7,21.8,145.8,11.5"/>
				<path id="Path_547" class="st4" d="M34.3,24.6c0.3-12.5,13-22.4,13-22.4s12.3,10.4,12,22.9s-13,22.4-13,22.4S34,37.1,34.3,24.6z
					"/>
				<path id="Path_548" class="st4" d="M80.2,42c11.1,5.6,14.4,21.5,14.4,21.5s-14.7,6.6-25.8,0.8S54.3,42.9,54.3,42.9
					S69,36.4,80.2,42z"/>
				<path id="Path_549" class="st4" d="M109.6,26.4c9.5,4.8,12.3,18.3,12.3,18.3s-12.6,5.6-22,0.7S87.6,27.1,87.6,27.1
					S100.1,21.6,109.6,26.4z"/>
				<path id="Path_550" class="st4" d="M79.2,7.8c1.8-10,13.2-16.3,13.2-16.3s8.5,9.9,6.8,19.9c-1.8,10-13.2,16.3-13.2,16.3
					S77.4,17.8,79.2,7.8z"/>
				<path id="Path_551" class="st4" d="M117,0.2c1.5-8.4,11.1-13.7,11.1-13.7s7.2,8.3,5.6,16.7c-1.5,8.4-11.2,13.7-11.2,13.7
					S115.4,8.6,117,0.2z"/>
				<path id="Path_552" class="st4" d="M142.8,19.6c6.3,5.7,5.7,16.7,5.7,16.7s-10.8,1.7-17.2-4.1c-6.4-5.7-5.7-16.7-5.7-16.7
					S136.4,13.9,142.8,19.6z"/>
				<path id="Path_553" class="st4" d="M154.9,1c8.3-1.6,16.7,5.6,16.7,5.6s-5.2,9.6-13.6,11.2s-16.7-5.6-16.7-5.6
					S146.5,2.6,154.9,1z"/>
			</g>
			<g id="Group_103" transform="translate(303.952 146.753)">
				<g id="Group_100">
					<path id="Rectangle_228" class="st4" d="M19.2,14.6h250.5c6.7,0,12,5.4,12,12v462.2c0,6.7-5.4,12-12,12H19.2
						c-6.7,0-12-5.4-12-12V26.6C7.2,20,12.5,14.6,19.2,14.6z"/>
					<path id="Rectangle_229" class="st0" d="M255.3,46.9v421.8c0,3.2-2.6,5.8-5.8,5.8h-210c-3.2,0-5.8-2.6-5.8-5.8V46.9
						c0-3.2,2.6-5.8,5.8-5.8h210.1C252.7,41.1,255.3,43.6,255.3,46.9z"/>
					<path id="Path_554" class="st4" d="M225.1,28.6H63.9L73.7,49c5,10.6,15.7,17.4,27.5,17.4h86.5c11.8,0,22.5-6.8,27.6-17.4
						L225.1,28.6z"/>
				</g>
				<g id="Group_101" transform="translate(63.615 358.152)">
					<path id="Path_555" class="st4" d="M96.3-12.2H7.8c-3,0-5.4,2.4-5.4,5.4l0,0l0,0c0,3,2.4,5.4,5.4,5.4l0,0h88.6
						c3,0,5.4-2.4,5.4-5.4l0,0C101.7-9.8,99.3-12.2,96.3-12.2z"/>
					<path id="Path_556" class="st4" d="M79.2,7.9H7.8c-3,0-5.4,2.4-5.4,5.4l0,0l0,0c0,3,2.4,5.4,5.4,5.4l0,0h71.4
						c3,0,5.4-2.4,5.4-5.4l0,0l0,0C84.6,10.3,82.2,7.9,79.2,7.9L79.2,7.9z"/>
					<path id="Path_557" class="st4" d="M56.1,29.9H7.8c-3,0-5.4,2.4-5.4,5.4l0,0l0,0c0,3,2.4,5.4,5.4,5.4l0,0h48.3
						c3,0,5.4-2.4,5.4-5.4l0,0l0,0C61.4,32.3,59,29.9,56.1,29.9z"/>
				</g>
				<g id="Group_102" transform="translate(63.517 169.469)">
					<rect id="Rectangle_230" x="2.4" y="56.9" class="st2" width="27.4" height="43"/>
					<rect id="Rectangle_231" x="45.5" y="41.5" class="st1" width="27.4" height="58.4"/>
					<rect id="Rectangle_232" x="89.2" y="19.4" class="st2" width="27.4" height="80.5"/>
					<rect id="Rectangle_233" x="133.7" y="1.9" class="st1" width="27.4" height="98"/>
				</g>
				<path id="Path_558" class="st5" d="M212.1,289.7H80.3c-8.6,0-15.6,7-15.6,15.6l0,0l0,0c0,8.6,7,15.6,15.6,15.6l0,0h131.9
					c8.6,0,15.6-7,15.6-15.6l0,0C227.8,296.7,220.8,289.7,212.1,289.7z"/>
				<path id="Rectangle_234" class="st5" d="M182,345.9H225c1.4,0,2.5,1.1,2.5,2.5v42.9c0,1.4-1.1,2.5-2.5,2.5H182
					c-1.4,0-2.5-1.1-2.5-2.5v-42.9C179.5,347.1,180.7,345.9,182,345.9z"/>
				<path id="Path_559" class="st4" d="M196.5,97.8h-95.3c-5.1,0-9.2,4.1-9.2,9.2l0,0l0,0c0,5.1,4.1,9.2,9.2,9.2l0,0h95.3
					c5.1,0,9.2-4.1,9.2-9.2l0,0C205.6,101.9,201.6,97.8,196.5,97.8z"/>
			</g>
			<g id="Group_104" transform="translate(524.941 33.983)">
				
					<ellipse id="Ellipse_36" transform="matrix(1 -9.965170e-03 9.965170e-03 1 -0.9079 0.591)" class="st1" cx="58.9" cy="91.4" rx="67.6" ry="67.7"/>
				<path id="Path_560" class="st5" d="M88.9,118.9l-59.5,0.6v-8.7c0-5.4,2.7-10.5,7.1-13.4l11.4-7.6c-9.6-6.2-12.5-19-6.3-28.7
					c6.2-9.6,19-12.5,28.7-6.3c9.6,6.2,12.5,19,6.3,28.7c-1.6,2.5-3.7,4.6-6.2,6.2l11.4,7.6c4.4,3,7.2,8,7.2,13.4L88.9,118.9z"/>
			</g>
			<path id="Path_561" class="st2" d="M244.8,227c22.6-26.6,19.2-66.5-7.4-89.1s-66.5-19.2-89.1,7.4s-19.2,66.5,7.4,89.1
				c21.9,18.6,53.7,20,77.3,3.5c13.5,0.8,28.2,0.2,28.2,0.2L244.8,227z M167.9,196.3c-3.6,0-6.5-2.9-6.5-6.5c0-3.6,2.9-6.5,6.5-6.5
				s6.5,2.9,6.5,6.5l0,0C174.4,193.3,171.5,196.3,167.9,196.3L167.9,196.3z M197,196.3c-3.6,0-6.5-2.9-6.5-6.5
				c0-3.6,2.9-6.5,6.5-6.5s6.5,2.9,6.5,6.5l0,0C203.4,193.3,200.6,196.3,197,196.3L197,196.3z M225.9,196.3c-3.6,0-6.5-2.9-6.5-6.5
				c0-3.6,2.9-6.5,6.5-6.5s6.5,2.9,6.5,6.5l0,0C232.5,193.3,229.5,196.3,225.9,196.3L225.9,196.3z"/>
			<g id="Group_105" transform="translate(21.614 295.356)">
				<path id="Path_562" class="st2" d="M105.1,47.4l6.1,14c0.2,0.5,0.6,0.9,1.1,1.1l14,6.1c1.1,0.5,1.6,1.8,1.1,2.8
					c-0.2,0.5-0.6,0.8-1.1,1.1l-14,6.1c-0.5,0.2-0.9,0.6-1.1,1.1l-6.1,14c-0.5,1.1-1.8,1.6-2.8,1.1c-0.5-0.2-0.8-0.6-1.1-1.1
					l-6.1-14c-0.2-0.5-0.6-0.9-1.1-1.1l-14-6.1C79,72,78.5,70.7,79,69.7c0.2-0.5,0.6-0.8,1.1-1.1l14-6.1c0.5-0.2,0.9-0.6,1.1-1.1
					l6.1-14c0.5-1.1,1.8-1.6,2.8-1.1C104.5,46.4,105,46.9,105.1,47.4z"/>
				<path id="Path_563" class="st2" d="M49.7,8.5l5,11.4c0.2,0.4,0.5,0.7,0.9,0.9l11.4,5c0.8,0.4,1.3,1.4,0.9,2.3
					c-0.2,0.4-0.5,0.7-0.9,0.9l-11.4,5c-0.4,0.2-0.7,0.5-0.9,0.9l-5,11.4c-0.4,0.8-1.4,1.3-2.3,0.9c-0.4-0.2-0.7-0.5-0.9-0.9
					l-5-11.4c-0.2-0.4-0.5-0.7-0.9-0.9l-11.3-5.1c-0.8-0.4-1.3-1.4-0.9-2.3c0.2-0.4,0.5-0.7,0.9-0.9l11.4-5c0.4-0.2,0.7-0.5,0.9-0.9
					l4.9-11.4c0.4-0.8,1.4-1.3,2.3-0.9C49.2,7.7,49.5,8.1,49.7,8.5z"/>
				<path id="Path_564" class="st2" d="M113.7,4.1l2.9,6.7c0.1,0.3,0.3,0.5,0.6,0.6l6.7,2.9c0.6,0.2,0.7,0.8,0.6,1.4
					c-0.1,0.2-0.3,0.4-0.6,0.6l-6.7,2.9c-0.3,0.1-0.5,0.3-0.6,0.6l-2.9,6.7c-0.2,0.6-0.8,0.7-1.4,0.6c-0.2-0.1-0.4-0.3-0.6-0.6
					l-2.9-6.7c-0.1-0.3-0.3-0.5-0.6-0.6l-6.7-2.9c-0.6-0.2-0.7-0.8-0.6-1.4c0.1-0.2,0.3-0.4,0.6-0.6l6.7-2.9
					c0.3-0.1,0.5-0.3,0.6-0.6l2.9-6.7c0.2-0.6,0.8-0.7,1.4-0.6C113.5,3.7,113.6,3.9,113.7,4.1z"/>
			</g>
			<g id="Group_106" transform="translate(622.43)">
				<path id="Path_565" class="st2" d="M50.9,107.1l5.2,11.8c0.2,0.5,0.6,0.7,0.9,0.9l11.8,5.2c0.9,0.4,1.3,1.5,0.9,2.4
					c-0.2,0.5-0.6,0.7-0.9,0.9L57,133.5c-0.5,0.2-0.7,0.6-0.9,0.9l-5.2,11.8c-0.4,0.9-1.5,1.3-2.4,0.9c-0.5-0.2-0.7-0.6-0.9-0.9
					l-5.2-11.8c-0.2-0.5-0.6-0.7-0.9-0.9l-11.8-5.2c-0.9-0.4-1.3-1.5-0.9-2.4c0.2-0.5,0.6-0.7,0.9-0.9l11.8-5.2
					c0.5-0.2,0.7-0.6,0.9-0.9l5.2-11.8c0.4-0.9,1.5-1.3,2.4-0.9C50.5,106.3,50.7,106.6,50.9,107.1z"/>
				<path id="Path_566" class="st2" d="M60.4,30.5l3.6,8.3c0.1,0.3,0.4,0.6,0.6,0.6l8.3,3.6c0.6,0.3,0.9,1,0.6,1.7
					c-0.1,0.3-0.4,0.6-0.6,0.6l-8.3,3.6c-0.3,0.1-0.6,0.4-0.6,0.6L60.4,58c-0.3,0.6-1,0.9-1.7,0.6c-0.3-0.1-0.6-0.4-0.6-0.6
					l-3.6-8.3c-0.1-0.3-0.4-0.6-0.6-0.6l-8.3-3.6c-0.6-0.3-0.9-1-0.6-1.7c0.1-0.3,0.4-0.6,0.6-0.6l8.3-3.6c0.3-0.1,0.6-0.4,0.6-0.6
					l3.6-8.3c0.3-0.6,1-0.9,1.7-0.6C60,30,60.2,30.3,60.4,30.5z"/>
				<path id="Path_567" class="st2" d="M3,26.5l4.5,10.5c0.2,0.4,0.5,0.6,0.8,0.8l10.5,4.5c0.8,0.4,1.2,1.3,0.8,2
					c-0.2,0.4-0.5,0.6-0.8,0.8L8.4,49.7c-0.4,0.2-0.6,0.5-0.8,0.8L3,61c-0.4,0.8-1.3,1.2-2.1,0.8C0.5,61.6,0.2,61.4,0,61l-4.4-10.5
					c-0.2-0.4-0.5-0.6-0.8-0.8l-10.5-4.5c-0.8-0.4-1.2-1.3-0.8-2c0.2-0.4,0.5-0.6,0.8-0.8l10.5-4.5c0.4-0.2,0.6-0.5,0.8-0.8
					l4.5-10.5c0.4-0.8,1.3-1.2,2.1-0.8C2.5,25.8,2.8,26.1,3,26.5z"/>
			</g>
		</g>
		<g id="Group_111" transform="translate(145.397 273.743)">
			<g id="Group_110" transform="translate(0 0)">
				<path id="Path_568" class="st6" d="M81.7,204.9L40.2,362H19l18.5-163L81.7,204.9z"/>
				<path id="Path_569" class="st4" d="M41.1,201.6c0,0,0.5,10.4,9.4,23s46.1,50.2,46.1,50.2l-4.1,86.7h19l15.8-95.8L89,203
					L41.1,201.6z"/>
				<g id="Group_109" transform="translate(105.895)">
					<path id="Path_570" class="st1" d="M20.3,49.5l19.4,35.2c1.7,3.1,5.6,4.2,8.6,2.5c3.1-1.7,4.2-5.6,2.5-8.6L31.4,43.4L20.3,49.5
						z"/>
					<g id="Group_108">
						<path id="Path_571" class="st2" d="M65,24.4L74,41c4.4-2.8,5.8-8.6,3.1-13C74.6,23.9,69.4,22.3,65,24.4z"/>
						<path id="Rectangle_235" class="st1" d="M50,7.8l4.3-2.3c0.3-0.2,0.7-0.1,0.8,0.3l28.7,52.9c0.2,0.3,0.1,0.7-0.3,0.8l-4.3,2.3
							c-0.3,0.2-0.7,0.1-0.8-0.3L49.8,8.6C49.7,8.3,49.8,7.9,50,7.8z"/>
						<path id="Path_572" class="st2" d="M51.9,12.3c-0.1,1.8-21.6,23.8-35.6,34.2c-5.1,3.8-6.7,10.8-3.7,16.4l0,0
							c3.1,5.6,9.8,8.1,15.7,5.9c16.5-6,46.6-11.9,48.1-11.1L51.9,12.3z"/>
						<path id="Path_573" class="st2" d="M28.2,36.7l15,27.7c15.4-4.1,32.2-7.2,33.3-6.6L51.9,12.3C51.8,13.6,40.1,26,28.2,36.7z"/>
					</g>
				</g>
				<path id="Path_574" class="st7" d="M135.9,79l2.6-7.5l2.7,4.8l5.6-3.1c4.3-2.3,9.6-0.8,12,3.4l0,0c2.3,4.3,0.8,9.6-3.4,12l0,0
					l0,0c-4.6,2.6-9.9,3.7-15.2,3.2l-1.9-0.2l-5.5-9.9L135.9,79z"/>
				<path id="Path_575" class="st6" d="M98.1,42.2c0,0,5.1-20.8-15.6-22C61.7,19,49.6,31.8,46.4,42.6c-4.6,15.7,3.1,31.6,11.5,35.7
					l11.4-25.1L98.1,42.2z"/>
				<path id="Path_576" class="st7" d="M63.7,53.2c0,0-5.6-7.4-8.2-1.2S53.2,67.2,63,67c0,0,4,18.9,22,13.5s15.8-29.9,13-38.2
					c0,0-16.2,2.6-26.6-1.8C71.5,40.4,67.7,52,63.7,53.2z"/>
				<path id="Path_577" class="st7" d="M79.2,75.4l-2.7,22.9L56.3,85l2.4-24.2L79.2,75.4z"/>
				<path id="Path_578" class="st8" d="M48.3,84.6c0,0-13.9,6-16.8,12c-2,4.1-7.4,24.6-10.6,37.6c-1.6,6.4,0.8,13.1,6.2,17
					l26.7,19.4L48.3,84.6z"/>
				<path id="Path_579" class="st1" d="M57.4,82.5c0,0-6.3-1.8-12.7,5.8s-10.8,17.4-9.1,46.6s-7.9,70.4-7.9,70.4l0,0
					c20.1,10.7,44.1,11.4,64.9,1.8l3.8-1.8c0,0-1.2-75-16.3-108.5L57.4,82.5z"/>
				<path id="Path_580" class="st1" d="M73.9,92.2l34.6,24.2l25.4-38.2l9.1,16.8c0,0-22.3,45.4-30.7,53.9l-54.9-28.1
					c-7.7-4.1-10.8-13.4-7.3-21.4l0,0c3.7-8.3,13.5-12,21.8-8.3C72.6,91.4,73.2,91.8,73.9,92.2z"/>
			</g>
			<path id="Path_581" class="st6" d="M92.5,361.4v14.8h40.3c1.4,0,2.6-1.1,2.6-2.6c0-0.8-0.4-1.6-1-2.1
				c-7.4-5.3-15.9-8.8-24.9-10.1L92.5,361.4z"/>
			<path id="Path_582" class="st6" d="M19.5,361.4v14.8h40.3c1.4,0,2.6-1.1,2.6-2.6c0-0.8-0.4-1.6-1-2.1
				c-7.4-5.3-15.9-8.8-24.9-10.1L19.5,361.4z"/>
		</g>
	</g>
</g>
</svg>
