<?xml version="1.0" encoding="utf-8"?>
<!-- Generator: Adobe Illustrator 23.0.0, SVG Export Plug-In . SVG Version: 6.00 Build 0)  -->
<svg version="1.1" id="Group_64" xmlns="http://www.w3.org/2000/svg" xmlns:xlink="http://www.w3.org/1999/xlink" x="0px" y="0px"
	 viewBox="0 0 710.4 684.3" style="enable-background:new 0 0 710.4 684.3;" xml:space="preserve">
<style type="text/css">
	.st0{fill:#D7F1F9;}
	.st1{fill:none;stroke:#2A47AF;stroke-miterlimit:10;}
	.st2{fill:#2A47AF;}
	.st3{fill:#6BC5F2;}
	.st4{fill:#BDE6EF;}
	.st5{fill:#FFFFFF;}
	.st6{fill:#FFADB7;}
	.st7{fill:#F8FDFF;}
	.st8{fill:#9EEBEF;}
	.st9{fill:#1C3A8E;}
	.st10{fill:#83E2E2;}
	.st11{fill:#F5EDF7;}
</style>
<path id="Path_383" class="st0" d="M675.3,666.3H29.2c-4.9,0-8.8,4-8.8,8.8l0,0c0,4.9,4,8.8,8.8,8.8h646.1c4.9,0,8.8-4,8.8-8.8l0,0
	C684.1,670.3,680.2,666.3,675.3,666.3z"/>
<g id="Group_63" transform="translate(0 0)">
	<g id="Group_60">
		<g id="Group_53" transform="translate(0 50.812)">
			<g id="Group_41" transform="translate(560.918)">
				<path id="Path_384" class="st1" d="M-13.3,186c15.9-58.3,49-110.5,95.1-149.7"/>
				<path id="Path_385" class="st2" d="M-6.7,104c-6.1-10.8-0.2-25.7-0.2-25.7s15.8,2.7,21.9,13.5s0.2,25.7,0.2,25.7
					S-0.7,114.8-6.7,104z"/>
				<path id="Path_386" class="st2" d="M41.2,95.6c12.4-0.8,23.2,11,23.2,11s-9.3,13-21.6,13.8c-12.4,0.8-23.2-11-23.2-11
					S28.8,96.4,41.2,95.6z"/>
				<path id="Path_387" class="st2" d="M58.4,67.4c10.6-0.7,19.8,9.4,19.8,9.4s-7.9,11.1-18.4,11.8C49.2,89.2,40,79.2,40,79.2
					S47.9,68.1,58.4,67.4z"/>
				<path id="Path_388" class="st2" d="M23,66.9c-3.5-9.4,3.1-20.6,3.1-20.6s12.3,4.1,15.8,13.5c3.5,9.4-3.1,20.6-3.1,20.6
					S26.6,76.3,23,66.9z"/>
				<path id="Path_389" class="st2" d="M51.5,41.3c-3-7.9,2.6-17.3,2.6-17.3s10.4,3.5,13.3,11.4c3,7.9-2.6,17.3-2.6,17.3
					S54.4,49.2,51.5,41.3z"/>
				<path id="Path_390" class="st2" d="M83.4,44.8c8.3,1.7,13.3,11.4,13.3,11.4s-8.4,6.9-16.7,5.3S66.6,50.1,66.6,50.1
					S75.1,43.1,83.4,44.8z"/>
				<path id="Path_391" class="st2" d="M84.2,22.8c6.4-5.6,17.1-3.7,17.1-3.7s0.4,10.9-5.9,16.4c-6.4,5.6-17.1,3.7-17.1,3.7
					S77.9,28.4,84.2,22.8z"/>
			</g>
			<g id="Group_42" transform="translate(0 441.688)">
				<path id="Path_392" class="st1" d="M190,159.5c-30.9-62.8-80.1-114.7-141.1-149"/>
				<path id="Path_393" class="st2" d="M196.7,105.5c4.8-14.5-5.8-31-5.8-31s-18.4,6.9-23.2,21.4s5.8,31,5.8,31
					S191.8,120,196.7,105.5z"/>
				<path id="Path_394" class="st2" d="M164.5,67.8c4.5-13.6-5.4-29.2-5.4-29.2s-17.3,6.5-21.9,20.1s5.4,29.2,5.4,29.2
					S159.9,81.4,164.5,67.8z"/>
				<path id="Path_395" class="st2" d="M108.1,68.9c-14.2,1.9-23.9,17.6-23.9,17.6s13.4,12.8,27.6,10.9
					c14.2-1.8,23.9-17.6,23.9-17.6S122.4,67.1,108.1,68.9z"/>
				<path id="Path_396" class="st2" d="M82.3,40.7c-12.1,1.6-20.4,15-20.4,15S73.4,66.6,85.5,65c12.1-1.6,20.4-15,20.4-15
					S94.5,39.1,82.3,40.7z"/>
				<path id="Path_397" class="st2" d="M122.4,32.3c1.9-11.5-8-22.7-8-22.7s-13.1,7.4-15,18.9c-1.9,11.5,8.1,22.7,8.1,22.7
					S120.5,43.8,122.4,32.3z"/>
				<path id="Path_398" class="st2" d="M84.5,9.4c1.6-9.7-6.8-19.1-6.8-19.1s-11,6.2-12.6,15.9c-1.6,9.7,6.8,19.1,6.8,19.1
					S82.8,19.1,84.5,9.4z"/>
				<path id="Path_399" class="st2" d="M49,20.5c-9.1,3.8-12.6,15.9-12.6,15.9s11.1,6,20.2,2.3c9.1-3.8,12.6-15.9,12.6-15.9
					S58.1,16.8,49,20.5z"/>
				<path id="Path_400" class="st2" d="M43.1-4.3c-8.5-4.9-20.2-0.4-20.2-0.4s1.9,12.5,10.4,17.4s20.2,0.4,20.2,0.4
					S51.6,0.6,43.1-4.3z"/>
				<path id="Path_401" class="st2" d="M142.8,109c-15.2-0.6-28.2,14.2-28.2,14.2s11.8,15.7,27,16.3s28.2-14.2,28.2-14.2
					S158.1,109.6,142.8,109z"/>
			</g>
			<g id="Group_52" transform="translate(77.067 125.853)">
				<g id="Group_43" transform="translate(0)">
					<path id="Rectangle_205" class="st2" d="M28.2,10.7h486.2c5.7,0,10.3,4.6,10.3,10.3v353.9c0,5.7-4.6,10.3-10.3,10.3H28.2
						c-5.7,0-10.3-4.6-10.3-10.3V21C17.9,15.3,22.5,10.7,28.2,10.7z"/>
					<path id="Path_402" class="st0" d="M59.1,274.3c-9.4,0-17-7.6-17-17l1.1-204.4c0-9.4,7.6-17,17-17h422.4c9.4,0,17,7.6,17,17
						l-1.1,204.4c0,9.4-7.6,17-17,17H59.1z"/>
				</g>
				<path id="Path_403" class="st3" d="M17.9,303.3v39c0,23.7,19.2,42.9,42.9,42.9c0,0,0,0,0,0h421.1c23.7,0,42.9-19.2,42.9-42.9
					c0,0,0,0,0,0v-39H17.9z"/>
				<rect id="Rectangle_206" x="196.3" y="385.2" class="st0" width="150.1" height="56.9"/>
				<rect id="Rectangle_207" x="196.3" y="385.2" class="st4" width="150.1" height="17.3"/>
				<path id="Rectangle_208" class="st3" d="M137.2,442.1h268.2c4.9,0,8.9,4,8.9,8.9v34.6l0,0h-286l0,0V451
					C128.3,446,132.3,442.1,137.2,442.1C137.2,442.1,137.2,442.1,137.2,442.1z"/>
				<path id="Path_404" class="st2" d="M289.5,347.7c0,10-8.1,18.2-18.2,18.2c-10,0-18.2-8.1-18.2-18.2c0-10,8.1-18.2,18.2-18.2
					C281.4,329.5,289.5,337.6,289.5,347.7z"/>
				<path id="Rectangle_209" class="st5" d="M98.7,65.1h340c1.4,0,2.6,1.2,2.6,2.6V100c0,1.4-1.2,2.6-2.6,2.6h-340
					c-1.4,0-2.6-1.2-2.6-2.6V67.7C96.1,66.3,97.3,65.1,98.7,65.1z"/>
				<path id="Path_405" class="st2" d="M294.6,209.1H100.8c-2.3,0-4.2,1.9-4.2,4.2v6.2c0,2.3,1.9,4.2,4.2,4.2h193.8
					c4,0,7.3-3.3,7.3-7.3c0,0,0,0,0,0l0,0C301.9,212.4,298.6,209.1,294.6,209.1z"/>
				<path id="Rectangle_210" class="st5" d="M97.6,236.7h132.7c0.6,0,1,0.4,1,1c0,0,0,0,0,0v12.6c0,0.6-0.5,1-1,1H97.6
					c-0.6,0-1-0.5-1-1c0,0,0,0,0,0v-12.6C96.6,237.2,97,236.7,97.6,236.7C97.6,236.7,97.6,236.7,97.6,236.7z"/>
				<g id="Group_44" transform="translate(150.532 74.61)">
					<ellipse id="Ellipse_27" class="st2" cx="13.9" cy="11.6" rx="5.7" ry="5.7"/>
					<ellipse id="Ellipse_28" class="st2" cx="55.4" cy="11.6" rx="5.7" ry="5.7"/>
					<ellipse id="Ellipse_29" class="st2" cx="96.9" cy="11.6" rx="5.7" ry="5.7"/>
					<ellipse id="Ellipse_30" class="st2" cx="138.4" cy="11.6" rx="5.7" ry="5.7"/>
					<ellipse id="Ellipse_31" class="st2" cx="179.9" cy="11.6" rx="5.7" ry="5.7"/>
					<ellipse id="Ellipse_32" class="st2" cx="221.4" cy="11.6" rx="5.7" ry="5.7"/>
				</g>
				<g id="Group_47" transform="translate(279.68 122.259)">
					<path id="Rectangle_211" class="st5" d="M3,2.8h61.6c1.7,0,3.1,1.4,3.1,3.1v61.6c0,1.7-1.4,3.1-3.1,3.1H3
						c-1.7,0-3.1-1.4-3.1-3.1V5.9C-0.1,4.2,1.3,2.8,3,2.8z"/>
					<g id="Group_46" transform="translate(14.776 16.374)">
						<path id="Path_406" class="st6" d="M38.4,13.3c-1.2,0.1-2.5,0-3.7-0.2c-2.1-0.4,0.4-3-0.9-7.6c-1.3-4.6-5.8-4.4-5.6-2.2
							c0.2,2.2,0.2,7.6-1.3,9C26,13,24.9,14.1,24,15c-0.8,0.8-1.8,1.3-2.9,1.3h-0.9l-0.1,12.3l4.8,0c2.3,2.6,6.8,3.1,6.8,3.1l5.7,0
							c2.6-0.1,4.7-2,4.9-4.6l1-7.9c0.4-2.8-1.5-5.4-4.3-5.9C38.8,13.3,38.6,13.3,38.4,13.3z"/>
						<g id="Group_45" transform="translate(0 10.394)">
							<path id="Path_407" class="st2" d="M-1.1,23l16.6,0.1l0.2-21.9L-0.9,1.1L-1.1,23z"/>
						</g>
					</g>
				</g>
				<g id="Group_48" transform="translate(178.733 122.259)">
					<path id="Rectangle_212" class="st2" d="M9.6,2.8h61.6c1.7,0,3.1,1.4,3.1,3.1v61.6c0,1.7-1.4,3.1-3.1,3.1H9.6
						c-1.7,0-3.1-1.4-3.1-3.1V5.9C6.4,4.2,7.8,2.8,9.6,2.8z"/>
					<path id="Path_408" class="st7" d="M40.7,14.5c-12-0.1-21.8,9.6-21.9,21.6c-0.1,12,9.6,21.8,21.6,21.9
						c12,0.1,21.8-9.6,21.9-21.6c0,0,0,0,0,0C62.4,24.4,52.7,14.6,40.7,14.5z M50,36.1c-0.4,2.5-2.3,8.9-9.5,10.5l0,0
						c-7.3-1.8-9-8.2-9.4-10.7c-0.2-1.1-0.1-2.1,0.3-3.1c0.8-2,2.8-3.4,5-3.4c1.7,0,3.2,0.8,4.2,2.2c1-1.3,2.6-2.1,4.3-2.1
						c2.2,0,4.1,1.4,4.9,3.4C50.1,34,50.2,35.1,50,36.1L50,36.1z"/>
				</g>
				<g id="Group_49" transform="translate(375.82 122.259)">
					<path id="Rectangle_213" class="st3" d="M-3.2,2.8h61.6c1.7,0,3.1,1.4,3.1,3.1v61.6c0,1.7-1.4,3.1-3.1,3.1H-3.2
						c-1.7,0-3.1-1.4-3.1-3.1V5.9C-6.3,4.2-4.9,2.8-3.2,2.8z"/>
					<path id="Path_409" class="st5" d="M42.5,22.2c1.3-1,2.6-1.8,4-2.6l0,0l0,0h0c-2.4-0.8-5-0.9-7.4-0.3c-1.7-2.6-5-3.7-7.9-2.6
						c-2.6,0.7-4.7,2.5-5.9,4.9c-1.2,2.4-1.5,5.2-0.8,7.8c0.2,0.4,0.3,0.8,0.3,1.2c-4.2-1.4-9.8-1.8-17.2,0.1c0,0,3.5,8.8,10.9,11.7
						l0,0l-0.2,0.2c-0.1,0.1-0.3,0.3-0.5,0.4l-0.1,0.1c-0.2,0.2-0.4,0.3-0.6,0.5l-0.1,0.1c-2.3,1.8-4.8,3.4-7.4,4.8
						C13.6,52,18.7,54,24,54.1c4.3,0.1,9.2-1.1,14.5-4.9c10.4-7.4,2.9-25.2,2.6-25.9C41.6,22.9,42,22.6,42.5,22.2z"/>
				</g>
				<g id="Group_51" transform="translate(79.468 122.259)">
					<path id="Rectangle_214" class="st3" d="M16,2.8h61.6c1.7,0,3.1,1.4,3.1,3.1v61.6c0,1.7-1.4,3.1-3.1,3.1H16
						c-1.7,0-3.1-1.4-3.1-3.1V5.9C12.8,4.2,14.2,2.8,16,2.8z"/>
					<g id="Group_50" transform="translate(14.935 16.242)">
						<path id="Path_410" class="st7" d="M52,19.5l0,14c0,3.5-2.9,6.4-6.4,6.4c0,0,0,0,0,0l-27.4,0c-3.5,0-6.4-2.9-6.4-6.4l0-13.9
							h7.6c0,0.4-0.1,0.8-0.1,1.2c0,7.4,5.6,13.4,12.5,13.4s12.5-6,12.5-13.4c0-0.4,0-0.8-0.1-1.3L52,19.5z"/>
						<path id="Path_411" class="st7" d="M31.9,10.7c-5.2,0-9.4,4.5-9.4,10c0,5.6,4.2,10.1,9.4,10.1s9.4-4.5,9.4-10
							C41.3,15.2,37.1,10.7,31.9,10.7z M30.7,26.2c-2.3,0.1-4.2-1.6-4.4-3.8s1.6-4.2,3.8-4.4c2.3-0.1,4.2,1.6,4.4,3.8
							c0,0.1,0,0.2,0,0.3C34.6,24.4,32.9,26.2,30.7,26.2L30.7,26.2z M35.3,18c-1,0.1-1.8-0.7-1.9-1.7c-0.1-1,0.7-1.8,1.7-1.9
							c1-0.1,1.8,0.7,1.9,1.7c0,0,0,0.1,0,0.1C37,17.1,36.2,17.9,35.3,18L35.3,18z"/>
						<path id="Path_412" class="st7" d="M45.8,1.8L18.1,1.7c-3.5,0.1-6.3,3.1-6.2,6.6l0,5.1h9.6C24.8,7.6,32.2,5.6,38,9
							c1.8,1.1,3.4,2.6,4.4,4.4H52l0-5C52.1,4.9,49.4,1.9,45.8,1.8z"/>
					</g>
				</g>
			</g>
		</g>
		<g id="Group_59" transform="translate(21.2)">
			<g id="Group_54" transform="translate(0 122.845)">
				<ellipse id="Ellipse_33" class="st8" cx="83.9" cy="76.5" rx="62.3" ry="62.3"/>
				<path id="Path_413" class="st5" d="M72.8,104.1c-1.7,0-3.3-0.7-4.4-1.8L47.9,81.8c-2.4-2.5-2.4-6.5,0.1-8.9
					c2.4-2.4,6.3-2.4,8.8,0l16,16l36.4-36.4c2.4-2.5,6.4-2.6,8.9-0.2c2.5,2.4,2.6,6.4,0.2,8.9c-0.1,0.1-0.1,0.1-0.2,0.2l-40.8,40.9
					C76,103.4,74.4,104.1,72.8,104.1z"/>
			</g>
			<g id="Group_55" transform="translate(240.672)">
				<path id="Path_414" class="st8" d="M162.7,146.5c23.8,0.1,43.2-19.2,43.2-43c0.1-23.8-19.2-43.2-43-43.2
					c-5.3,0-10.5,0.9-15.5,2.8c-1.2-23.8-21.4-42.1-45.2-40.9C81,23.2,63.6,39.6,61.5,60.8C38.7,54,14.6,67,7.8,89.8
					s6.2,46.9,29,53.7c4,1.2,8.2,1.8,12.3,1.8L162.7,146.5z"/>
				<path id="Path_415" class="st2" d="M89,163.3h34v-33.5h17l-34-44.4l-34,44.4h17L89,163.3z"/>
			</g>
			<g id="Group_56" transform="translate(547.688 215.499)">
				<path id="Path_416" class="st3" d="M105.1,8.2H-0.5c-7.3,0-13.3,6-13.3,13.3v93.5c0,2.1,1.7,3.8,3.8,3.8c1,0,2-0.4,2.7-1.1
					l24.1-24.1c2.1-2.1,5-3.3,8-3.3h80.2c7.5,0,13.5-6.1,13.5-13.5c0,0,0,0,0,0v-55C118.6,14.2,112.5,8.2,105.1,8.2
					C105.1,8.2,105.1,8.2,105.1,8.2z"/>
				<path id="Path_417" class="st2" d="M92.3,32.5H17c-2.7,0-4.9,2.2-4.9,4.9l0,0c0,2.7,2.2,4.9,4.9,4.9h75.3c2.7,0,4.9-2.2,4.9-4.9
					l0,0C97.1,34.7,95,32.5,92.3,32.5z"/>
				<path id="Path_418" class="st2" d="M62.7,60.4H17c-2.7,0-4.9,2.2-4.9,4.9l0,0c0,2.7,2.2,4.9,4.9,4.9h45.8c2.7,0,4.9-2.2,4.9-4.9
					l0,0C67.6,62.6,65.4,60.4,62.7,60.4z"/>
			</g>
			<g id="Group_57" transform="translate(84.325 48.583)">
				<path id="Path_419" class="st3" d="M104,69.1l7,16c0.2,0.6,0.7,1,1.3,1.3l16,7c1.2,0.5,1.8,2,1.3,3.2c-0.2,0.6-0.7,1-1.3,1.3
					l-16,7c-0.6,0.2-1,0.7-1.3,1.3l-7,16c-0.5,1.2-2,1.8-3.2,1.3c-0.6-0.2-1-0.7-1.3-1.3l-7-16c-0.2-0.6-0.7-1-1.3-1.3l-16-7
					c-1.2-0.5-1.8-2-1.3-3.2c0.2-0.6,0.7-1,1.3-1.3l16-7c0.6-0.2,1-0.7,1.3-1.3l7-16c0.5-1.2,2-1.8,3.2-1.3
					C103.3,68.1,103.8,68.5,104,69.1z"/>
				<path id="Path_420" class="st3" d="M40.6,24.7l5.7,13c0.2,0.5,0.6,0.8,1,1l13,5.7c1,0.4,1.5,1.6,1,2.6c-0.2,0.5-0.6,0.8-1,1
					l-13,5.7c-0.5,0.2-0.8,0.6-1,1l-5.7,13c-0.4,1-1.6,1.5-2.6,1c-0.5-0.2-0.8-0.6-1-1l-5.7-13c-0.2-0.5-0.6-0.8-1-1l-13-5.7
					c-1-0.4-1.5-1.6-1-2.6c0.2-0.5,0.6-0.8,1-1l13-5.7c0.5-0.2,0.8-0.6,1-1l5.7-13c0.4-1,1.6-1.5,2.6-1
					C40.1,23.8,40.4,24.2,40.6,24.7z"/>
				<path id="Path_421" class="st3" d="M113.8,19.6l3.3,7.6c0.1,0.3,0.3,0.5,0.6,0.6l7.6,3.3c0.6,0.3,0.9,0.9,0.6,1.5
					c-0.1,0.3-0.3,0.5-0.6,0.6l-7.6,3.3c-0.3,0.1-0.5,0.3-0.6,0.6l-3.3,7.6c-0.3,0.6-0.9,0.9-1.5,0.6c-0.3-0.1-0.5-0.3-0.6-0.6
					l-3.3-7.6c-0.1-0.3-0.3-0.5-0.6-0.6l-7.6-3.3c-0.6-0.3-0.9-0.9-0.6-1.5c0.1-0.3,0.3-0.5,0.6-0.6l7.6-3.3
					c0.3-0.1,0.5-0.3,0.6-0.6l3.3-7.6c0.3-0.6,0.9-0.9,1.5-0.6C113.5,19.1,113.7,19.4,113.8,19.6z"/>
			</g>
			<g id="Group_58" transform="translate(580.537 431.772)">
				<path id="Path_422" class="st3" d="M54.6,34.4l5.6,12.8c0.2,0.5,0.6,0.8,1,1L74,53.8c1,0.4,1.4,1.6,1,2.6c-0.2,0.5-0.6,0.8-1,1
					L61.1,63c-0.5,0.2-0.8,0.6-1,1l-5.6,12.8c-0.4,1-1.6,1.4-2.6,1c-0.5-0.2-0.8-0.6-1-1L45.4,64c-0.2-0.5-0.6-0.8-1-1l-12.8-5.6
					c-1-0.4-1.4-1.6-1-2.6c0.2-0.5,0.6-0.8,1-1l12.8-5.6c0.5-0.2,0.8-0.6,1-1L51,34.4c0.4-1,1.6-1.4,2.6-1
					C54,33.6,54.4,34,54.6,34.4z"/>
				<path id="Path_423" class="st3" d="M3.8-1.2L8.3,9.3c0.2,0.4,0.5,0.7,0.8,0.8l10.4,4.5c0.8,0.3,1.2,1.3,0.8,2.1
					c-0.2,0.4-0.5,0.7-0.8,0.8L9.1,22.1c-0.4,0.2-0.7,0.5-0.8,0.8L3.8,33.3c-0.3,0.8-1.3,1.2-2.1,0.8C1.3,34,1,33.7,0.9,33.3
					l-4.5-10.4c-0.2-0.4-0.5-0.7-0.8-0.8L-15,17.5c-0.8-0.4-1.2-1.3-0.8-2.1c0.2-0.4,0.4-0.6,0.8-0.8l10.4-4.5
					c0.4-0.2,0.7-0.5,0.8-0.8L0.9-1.2C1.2-2,2.1-2.4,2.9-2C3.3-1.8,3.6-1.6,3.8-1.2z"/>
				<path id="Path_424" class="st3" d="M62.4-5.2l2.7,6.1c0.1,0.2,0.3,0.4,0.5,0.5L71.7,4c0.5,0.2,0.7,0.7,0.5,1.2
					c-0.1,0.2-0.3,0.4-0.5,0.5l-6.1,2.7c-0.2,0.1-0.4,0.3-0.5,0.5L62.4,15c-0.2,0.5-0.8,0.7-1.2,0.5c-0.2-0.1-0.4-0.3-0.5-0.5
					L58,8.9c-0.1-0.2-0.3-0.4-0.5-0.5l-6.1-2.7C51,5.5,50.8,5,51,4.5c0.1-0.2,0.3-0.4,0.5-0.5l6.1-2.7C57.8,1.3,58,1.1,58,0.9
					l2.7-6.1c0.2-0.5,0.8-0.7,1.2-0.5C62.1-5.6,62.3-5.4,62.4-5.2z"/>
			</g>
		</g>
	</g>
	<g id="Group_62" transform="translate(451.22 336.373)">
		<path id="Path_425" class="st9" d="M88.8,311.1v14.7h-40c-1.4,0-2.6-1.1-2.6-2.6c0-0.8,0.4-1.6,1-2.1c7.3-5.3,15.8-8.7,24.7-10
			L88.8,311.1z"/>
		<path id="Path_426" class="st9" d="M161.3,311.1v14.7h-40c-1.4,0-2.6-1.1-2.6-2.6c0-0.8,0.4-1.6,1-2.1c7.3-5.3,15.8-8.7,24.7-10
			L161.3,311.1z"/>
		<g id="Group_61">
			<path id="Path_427" class="st9" d="M161.7,311.2c-2.8-18.9-21.5-147.1-25.3-149.8c-4.1-3-32.7,29.8-32.7,29.8
				c2.9,2.9,32.3,100.1,40.9,120L161.7,311.2z"/>
			<path id="Path_428" class="st2" d="M88.4,311.2l0.4,0c6.4-21.4,21.6-89.6,39.9-113.3c8.7-11.3,8.7-39.5,8.7-39.5L87,168.4
				c-8.3,16.6-13.7,117-15,142.8H88.4z"/>
			<path id="Path_429" class="st10" d="M122.9,91.6c-3.2-8.4-47.7-64.5-47.7-64.5l-16.1,7.3c0,0,29.5,51.7,37.2,62.7L122.9,91.6z"/>
			<path id="Path_430" class="st11" d="M84.4,47.5"/>
			<path id="Path_431" class="st9" d="M87.1,47.9c0,0-14.3-7.7-3.2-23.5c0,0,6,9.9,17.1,6.5c35.1-10.7,36.8,25.7,30.5,38.8
				c-2.8,5.7-9.8,10.2-11.3,9.8c-1.5-0.5-8.3-13.4-8.3-13.4L87.1,47.9z"/>
			<path id="Path_432" class="st6" d="M87.3,47.4c-1.9,2.8-1.7,8.5-1.7,12.3c0,9.3,6.2,16.3,14.6,16.3c5.9,0,10.9-3.7,13.5-9.1
				c3,0.6,6.4-1.9,7.4-5.3c1.1-3.5-0.5-7.1-3.7-8.1c-1-0.3-2.8,1-3.7,1.2c-3.8-1.7-6.9-4.7-8.6-8.6L87.3,47.4z"/>
			<path id="Path_433" class="st6" d="M119.1,64.6l-15.5,3.2v18.4h15.5V64.6z"/>
			<path id="Path_434" class="st8" d="M141.9,161.3c0,0-11.6-66.3-13.3-70.6c-1.8-4.2-8.3-6.9-26-6.8c-10.2,0.1-43.4-5.7-48.7-8.2
				s-35-38.2-35-38.2L5.2,46.5c0,0,27.9,44.2,36.4,47s38.5,13.1,38.5,13.1l1.1,64.6C81.1,171.2,122.1,190.3,141.9,161.3z"/>
			<path id="Path_435" class="st6" d="M18.6,38.3c0,0-7.2-17.4-8.9-17.8s-2.8,6.8-2.8,6.8S0.3,10.9-3.3,10.8
				c-3.6-0.1-6.9,19.3,9.4,35.5L18.6,38.3z"/>
			<path id="Path_436" class="st6" d="M61.7,33.3c0,0-12.8-14.8-10.5-15.4c2.4-0.6,7.4,3.6,7.4,3.6s-8.8-20.4-3-21.1
				s17.1,18,19.6,26.7L61.7,33.3z"/>
		</g>
	</g>
</g>
</svg>
